<svg xmlns="http://www.w3.org/2000/svg" viewBox="0 0 640 640"><path fill="#16110d" stroke="#16110d" stroke-width="35.8" stroke-linejoin="round" d="M 309.5 63.4 C 308.9 63.6,306.5 64.3,304 65.1 C 294 68,282 79.4,282 85.9 C 282 87,281.6 88.2,281 88.5 C 279.6 89.3,279.7 107.2,281.1 110.7 C 283.5 116.7,284.6 118.7,289.2 125.7 C 291.9 129.6,294 133.2,294 133.6 C 294 134,286.6 141.6,277.5 150.5 C 268.4 159.4,261 167.3,261 168.1 C 261 168.9,259.4 171.2,257.5 173.2 C 255.6 175.2,254 177.4,254 178 C 254 178.7,252.2 181.2,250 183.7 C 247.8 186.2,246 188.8,246 189.5 C 246 190.2,244.7 192.1,243 193.8 C 241.3 195.6,240 197.6,240 198.4 C 240 199.1,239.3 200.3,238.5 201 C 237.7 201.7,237 203.1,237 204.1 C 237 205.1,236.6 206.2,236 206.5 C 235.5 206.8,234.3 208.8,233.4 210.8 C 231.2 216,228.8 220.7,225.7 226.3 C 224.2 228.9,223 231.7,223 232.5 C 223 233.3,222.4 234,221.8 234 C 220.7 234.1,216.4 242.2,209.8 257 C 206.3 264.7,203.9 271.2,201.9 278.5 C 201.5 280.1,200.6 283.3,200 285.5 C 197.8 293.1,196.8 300.6,196.3 314 C 195.6 332,197.8 343.7,204.3 358 C 206.9 363.5,212.6 373.4,214.3 375.2 C 214.9 375.9,216.7 378.2,218.3 380.2 C 219.8 382.2,223 386.1,225.5 388.7 C 232.1 395.8,232.7 397.9,229.6 402.6 C 226.3 407.8,223.7 415.6,224.6 418.3 C 226.1 423.5,228.7 427.7,233.2 432.2 C 237.4 436.5,238 437.5,238 441.3 C 238 451.4,233.6 457.8,223.3 462.7 C 219.5 464.5,213.4 470.9,211.8 474.8 C 210.8 477.3,210.2 480.5,208.4 492.3 C 207.6 497.9,203.9 502.1,197.7 504.2 C 189.2 507.2,186.3 508,184.2 508 C 183.1 508,181.1 508.4,179.8 508.9 C 178.5 509.4,175.5 510.3,173 511 C 164 513.5,155.9 516,153 517.2 C 151.6 517.8,149.4 518.7,148 519.3 C 140.4 522.3,138.5 523.5,133.5 528.6 C 125.9 536.2,123.5 557.9,129 569 C 131.3 573.7,131.2 577.1,128.5 582.2 C 125.1 588.7,124.8 596.5,127.8 600.7 C 130.8 604.9,136.1 605.9,158.5 606.5 C 169.5 606.8,196.5 607.5,218.5 608 C 291 610,345.7 610.5,409 609.8 C 503.8 608.8,512 607.6,512 593.9 C 512 588.6,511.7 587.9,507.5 583.2 C 505 580.5,503 577.9,503 577.6 C 503 577.2,505.1 572.6,507.7 567.2 C 512 558.3,512.4 556.9,512.5 550 C 512.5 535.3,507.6 527,495.3 521.1 C 491.6 519.3,487.7 517.4,486.8 516.9 C 485.8 516.4,484.3 516,483.5 516 C 482.7 516,481.2 515.6,480.2 515.1 C 479.3 514.6,476.5 513.6,474 513 C 471.5 512.3,468.6 511.4,467.5 511 C 466.4 510.5,464.4 509.9,463 509.5 C 461.6 509.2,458.9 508.4,457 507.8 C 455.1 507.3,451.2 506.5,448.5 506 C 425.3 502.3,426.6 503.3,426 488 C 425.7 481.1,424.9 474.4,424.3 473 C 423 470.1,415.8 464,413.6 464 C 412.8 464,411.8 463.6,411.5 463 C 411.2 462.4,410 462,408.8 462 C 405.9 462,401.3 458.4,399.6 454.7 C 398.8 452.9,397.6 448.5,397 444.7 C 395.5 436.6,396.6 433.7,403.3 427.4 C 410.2 420.8,411.1 412.9,405.7 404.7 C 402.5 399.9,403.4 397.2,411.1 388.5 C 417.4 381.5,428 367,428 365.6 C 428 365.3,429.2 362.5,430.6 359.3 C 434.1 351.8,436.3 344.8,438.2 335.5 C 438.8 332.8,439.4 322.6,439.7 313 C 440.2 295.2,440 293.2,435.9 277.3 C 434.8 273.3,434 269.2,434 268.1 C 434 267,431.8 259.5,429.1 251.3 C 423.7 235.3,420.3 228,409 209 C 406.2 204.2,394.4 187.3,393 186 C 392.7 185.7,390 182.6,387 179 C 377.7 168.1,367 157.7,358 151 C 340.4 137.8,339.6 136.1,346.2 125 C 348.1 122,350.1 117.9,350.9 116 C 351.6 114.1,352.7 111.4,353.4 110.1 C 354 108.8,354.5 103.6,354.5 98.6 C 354.4 90.7,354.1 88.8,351.6 83.9 C 347.1 74.8,340 68,332 65.3 C 328.6 64.1,311.5 62.6,309.5 63.4"/><path fill="#161210" fill-rule="evenodd" d="M 309.5 63.4 C 308.9 63.6,306.5 64.3,304 65.1 C 294 68,282 79.4,282 85.9 C 282 87,281.6 88.2,281 88.5 C 279.6 89.3,279.7 107.2,281.1 110.7 C 283.5 116.7,284.6 118.7,289.2 125.7 C 291.9 129.6,294 133.2,294 133.6 C 294 134,286.6 141.6,277.5 150.5 C 268.4 159.4,261 167.3,261 168.1 C 261 168.9,259.4 171.2,257.5 173.2 C 255.6 175.2,254 177.4,254 178 C 254 178.7,252.2 181.2,250 183.7 C 247.8 186.2,246 188.8,246 189.5 C 246 190.2,244.7 192.1,243 193.8 C 241.3 195.6,240 197.6,240 198.4 C 240 199.1,239.3 200.3,238.5 201 C 237.7 201.7,237 203.1,237 204.1 C 237 205.1,236.6 206.2,236 206.5 C 235.5 206.8,234.3 208.8,233.4 210.8 C 231.2 216,228.8 220.7,225.7 226.3 C 224.2 228.9,223 231.7,223 232.5 C 223 233.3,222.4 234,221.8 234 C 220.7 234.1,216.4 242.2,209.8 257 C 206.3 264.7,203.9 271.2,201.9 278.5 C 201.5 280.1,200.6 283.3,200 285.5 C 197.8 293.1,196.8 300.6,196.3 314 C 195.6 332,197.8 343.7,204.3 358 C 206.9 363.5,212.6 373.4,214.3 375.2 C 214.9 375.9,216.7 378.2,218.3 380.2 C 219.8 382.2,223 386.1,225.5 388.7 C 232.1 395.8,232.7 397.9,229.6 402.6 C 226.3 407.8,223.7 415.6,224.6 418.3 C 226.1 423.5,228.7 427.7,233.2 432.2 C 237.4 436.5,238 437.5,238 441.3 C 238 451.4,233.6 457.8,223.3 462.7 C 219.5 464.5,213.4 470.9,211.8 474.8 C 210.8 477.3,210.2 480.5,208.4 492.3 C 207.6 497.9,203.9 502.1,197.7 504.2 C 189.2 507.2,186.3 508,184.2 508 C 183.1 508,181.1 508.4,179.8 508.9 C 178.5 509.4,175.5 510.3,173 511 C 164 513.5,155.9 516,153 517.2 C 151.6 517.8,149.4 518.7,148 519.3 C 140.4 522.3,138.5 523.5,133.5 528.6 C 125.9 536.2,123.5 557.9,129 569 C 131.3 573.7,131.2 577.1,128.5 582.2 C 125.1 588.7,124.8 596.5,127.8 600.7 C 130.8 604.9,136.1 605.9,158.5 606.5 C 169.5 606.8,196.5 607.5,218.5 608 C 291 610,345.7 610.5,409 609.8 C 503.8 608.8,512 607.6,512 593.9 C 512 588.6,511.7 587.9,507.5 583.2 C 505 580.5,503 577.9,503 577.6 C 503 577.2,505.1 572.6,507.7 567.2 C 512 558.3,512.4 556.9,512.5 550 C 512.5 535.3,507.6 527,495.3 521.1 C 491.6 519.3,487.7 517.4,486.8 516.9 C 485.8 516.4,484.3 516,483.5 516 C 482.7 516,481.2 515.6,480.2 515.1 C 479.3 514.6,476.5 513.6,474 513 C 471.5 512.3,468.6 511.4,467.5 511 C 466.4 510.5,464.4 509.9,463 509.5 C 461.6 509.2,458.9 508.4,457 507.8 C 455.1 507.3,451.2 506.5,448.5 506 C 425.3 502.3,426.6 503.3,426 488 C 425.7 481.1,424.9 474.4,424.3 473 C 423 470.1,415.8 464,413.6 464 C 412.8 464,411.8 463.6,411.5 463 C 411.2 462.4,410 462,408.8 462 C 405.9 462,401.3 458.4,399.6 454.7 C 398.8 452.9,397.6 448.5,397 444.7 C 395.5 436.6,396.6 433.7,403.3 427.4 C 410.2 420.8,411.1 412.9,405.7 404.7 C 402.5 399.9,403.4 397.2,411.1 388.5 C 417.4 381.5,428 367,428 365.6 C 428 365.3,429.2 362.5,430.6 359.3 C 434.1 351.8,436.3 344.8,438.2 335.5 C 438.8 332.8,439.4 322.6,439.7 313 C 440.2 295.2,440 293.2,435.9 277.3 C 434.8 273.3,434 269.2,434 268.1 C 434 267,431.8 259.5,429.1 251.3 C 423.7 235.3,420.3 228,409 209 C 406.2 204.2,394.4 187.3,393 186 C 392.7 185.7,390 182.6,387 179 C 377.7 168.1,367 157.7,358 151 C 340.4 137.8,339.6 136.1,346.2 125 C 348.1 122,350.1 117.9,350.9 116 C 351.6 114.1,352.7 111.4,353.4 110.1 C 354 108.8,354.5 103.6,354.5 98.6 C 354.4 90.7,354.1 88.8,351.6 83.9 C 347.1 74.8,340 68,332 65.3 C 328.6 64.1,311.5 62.6,309.5 63.4"/><path fill="#271f1d" fill-rule="evenodd" d="M 309.5 63.4 C 308.9 63.6,306.5 64.3,304 65.1 C 294.4 67.9,282 79.6,282 85.9 C 282 87,281.6 88.2,281 88.5 C 279.6 89.3,279.7 107.2,281.1 110.7 C 283.5 116.7,284.6 118.7,289.2 125.7 C 291.9 129.6,294 133.2,294 133.6 C 294 134,286.6 141.6,277.5 150.5 C 268.4 159.4,261 167.3,261 167.9 C 261 168.6,259.4 171,257.5 173.3 C 255.6 175.5,254 177.8,254 178.3 C 254 178.8,252.2 181.2,250 183.7 C 247.8 186.2,246 188.7,246 189.3 C 246 189.9,244.8 191.9,243.2 193.9 C 240.2 197.8,238.4 200.7,237.5 203 C 237.1 203.8,236.5 205.2,236 206 C 235.5 206.8,234.3 209.1,233.4 211 C 230.7 216.9,228.5 221.3,225.7 226.3 C 224.2 228.9,223 231.7,223 232.4 C 223 233.2,222.4 234,221.7 234.3 C 220.3 234.8,211.9 251.4,206.9 263.5 C 205.8 266.2,203 274.8,201.9 278.5 C 201.5 280.1,200.6 283.3,200 285.5 C 196.5 297.5,195 322.8,197 334.5 C 200.3 353.6,208 368.3,224.6 387.7 C 232.4 396.7,232.8 397.9,229.6 402.7 C 222.3 413.8,222.9 420.2,232.2 430.7 C 237.3 436.5,238 437.8,238 441.5 C 238 451.4,233.5 457.8,223.3 462.7 C 219.5 464.5,213.4 470.9,211.8 474.8 C 210.8 477.3,210.2 480.5,208.4 492.3 C 207.6 497.9,203.9 502.1,197.7 504.2 C 189.2 507.2,186.3 508,184.2 508 C 183.1 508,181.1 508.4,179.8 508.9 C 178.5 509.4,175.5 510.3,173 511 C 168.5 512.2,166.9 512.7,159.5 514.9 C 155.4 516.2,151.8 517.6,148.8 519.1 C 147.8 519.6,146.5 520,146 520 C 144.1 520,133.4 527.7,131.7 530.3 C 125.5 539.8,124.1 559.1,129 569 C 131.3 573.7,131.2 577.1,128.5 582.2 C 123.2 592.3,125.4 601.7,133.6 604.6 C 141.6 607.4,160.8 605.6,169.3 601.3 C 171.1 600.4,175.4 599.9,181.3 599.8 C 186.4 599.8,192 599.4,193.8 598.8 C 196 598.1,197.5 598.2,198.4 598.9 C 199.8 600.1,231.4 599.5,238.5 598.2 C 240.7 597.8,244.8 597.7,247.5 598 C 254.5 598.8,265.7 598.4,300 596 C 307.4 595.5,314.1 595.1,314.8 595.1 C 315.4 595.1,317 595.1,318.2 595.1 C 319.5 595.1,322.5 594.6,325 594 C 327.5 593.4,331.1 592.6,333 592.3 C 334.9 592,337.5 590.8,338.8 589.6 C 341.4 587.2,347 586.8,370.9 586.8 C 381.9 586.9,384.5 587.2,386 588.5 C 387 589.4,388.4 589.9,389 589.5 C 389.6 589.1,391.3 589.6,392.8 590.7 C 394.7 592,397.7 592.5,403.2 592.7 C 407.5 592.8,413.6 593.5,416.7 594.3 C 420 595.1,425.7 595.5,430 595.3 C 438.7 594.9,439.3 594.9,446.1 595.2 C 449.7 595.3,451.6 594.9,452.4 593.9 C 454.7 590.7,457.8 589.9,465.8 590.5 C 470 590.9,474.5 591.6,475.7 592.2 C 477.3 593,478.3 593,479.3 592.2 C 480.1 591.5,482.5 591.1,484.8 591.2 C 487.1 591.3,489.6 590.8,490.4 590.1 C 491.6 589.1,493.6 589,499.2 589.9 C 503.2 590.5,507.4 591.1,508.5 591.2 C 511.3 591.6,511.6 588,508.9 584.7 C 507.1 582.3,506.3 582,503.3 582.6 C 501.3 583,496.8 582.8,493.1 582.2 C 481.9 580.3,465 578.1,453.6 577 C 447.5 576.4,442.2 575.6,441.7 575.3 C 441.2 575,421.2 574.6,397.2 574.4 C 373.1 574.2,350.1 573.9,346 573.7 C 341.9 573.5,327.5 572.8,314 572.1 C 285.4 570.8,276.7 569.6,272.3 566.7 C 268 563.8,267.6 562.3,270.6 560.4 C 272.4 559.2,274.3 558.9,277.6 559.4 C 281.5 559.9,282.6 559.6,285.5 557.4 C 288.4 555.2,289.8 554.9,294.7 555.1 C 298 555.3,301.5 554.9,302.7 554.2 C 304 553.5,308.5 552.7,312.7 552.4 C 317 552.1,323.2 551.7,326.5 551.4 C 347.9 549.9,355.6 549.9,360.7 551.5 C 364.5 552.7,366.4 552.9,367.8 552.1 C 369.3 551.3,370.8 551.5,373.7 552.8 C 376.5 554,380.4 554.5,388.5 554.6 C 397.3 554.7,409.6 555.3,414.2 555.9 C 414.7 556,415 557.1,415 558.5 C 415 562,417.6 562.8,420.1 560.1 C 421.9 558.2,423.1 558,434.4 558 C 443.1 558,448.1 557.5,451.1 556.4 C 454.7 555.2,456.2 555.1,459.1 556.1 C 461.8 556.9,463.2 556.9,464.9 556.1 C 466.1 555.4,467.4 555.2,467.9 555.5 C 469.9 556.7,489.9 554.2,493.7 552.2 C 504.1 546.7,507 547.1,507 554.1 C 507 558.4,508.2 559.7,510 557.5 C 511.3 555.9,511.6 543,510.5 536.8 C 509.5 531.3,503.4 525,495.3 521.1 C 491.6 519.3,487.7 517.4,486.8 516.9 C 485.8 516.4,484.3 516,483.5 516 C 482.7 516,481.2 515.6,480.2 515.1 C 479.3 514.6,476.5 513.6,474 513 C 471.5 512.3,468.6 511.4,467.5 511 C 466.4 510.5,464.4 509.9,463 509.5 C 461.6 509.2,458.9 508.4,457 507.8 C 455.1 507.3,451.2 506.5,448.5 506 C 429 502.9,426.6 501.9,426.2 497 C 426 495.1,425.5 493.1,425 492.6 C 424.6 492.2,419 491.6,412.6 491.3 C 394.9 490.7,388.2 487.3,398 484 C 400.5 483.1,403.5 481.9,404.7 481.2 C 406 480.5,410 480,414.5 480.2 C 422.9 480.4,424.1 479.7,424.2 475 C 424.3 472.3,423.5 471,419.9 467.9 C 417.5 465.8,414.7 464,413.8 464 C 412.9 464,411.8 463.6,411.5 463 C 411.2 462.4,409.9 462,408.8 462 C 406.4 462,400 457.5,400 455.8 C 400 455.2,398.9 453.3,397.6 451.5 C 393.8 446.6,393.4 440.5,396.3 434 C 397.6 431,399.5 427.9,400.4 427.1 C 403.1 424.8,407 416.4,407 412.8 C 407 411,405.8 407.2,404.3 404.4 C 401.8 399.7,401.7 399.1,403 395.9 C 403.8 394.1,407.8 389.1,412 384.9 C 416.1 380.7,421 374.7,422.9 371.6 C 427.2 364.4,434.9 345.3,435 341.8 C 435 340.3,435.5 338.8,436.1 338.4 C 436.8 338,437 336.2,436.7 333.7 C 436.3 331.1,436.7 328.6,437.6 326.7 C 438.7 324.6,438.9 322.7,438.4 319.7 C 437.9 317.4,437.6 314.6,437.5 313.5 C 437.5 310.6,435.5 311.1,435.5 314 C 435.5 315.6,434.9 316.5,434 316.5 C 432.9 316.5,432.4 315.1,432.2 311.2 C 431.9 305.8,433.1 304.4,435.5 307.7 C 436.2 308.6,437.2 309,437.8 308.6 C 439.7 307.5,439.2 302.7,436.6 294.8 C 435.2 290.8,433.9 285.7,433.5 283.5 C 433.1 281.4,432.2 278.3,431.4 276.8 C 430.6 275.3,430 272.6,430 270.8 C 430 269,428.9 261.9,427.5 255.1 C 426.1 248.3,425 241.7,425 240.6 C 425 237.7,417.5 223.1,408.3 207.9 C 395.4 186.8,374.3 163.5,353.6 147.6 C 340.4 137.4,339.1 133.6,345.6 124.9 C 348.4 121.2,350.6 116.7,352.5 110.5 C 355.9 99.5,355.5 92,351.3 83.4 C 347.9 76.3,338 67,332.2 65.2 C 328.1 64,311.5 62.7,309.5 63.4 M 315.8 118 C 312.4 121.9,310.9 131.9,313.4 134 C 315.4 135.6,321.7 137,328.5 137.4 C 331.2 137.6,334.7 138.1,336.2 138.5 C 338.7 139.2,339 139,338.9 136.9 C 338.7 134,339.6 129.1,341 125.4 C 341.6 123.9,341.8 122.5,341.5 122.2 C 341.2 121.9,341 122.2,341 122.8 C 341 124.4,335.2 127.3,333.4 126.6 C 332.5 126.3,332 124.6,332 122 C 332 118.8,331.6 118,330.2 118 C 329.2 118,327.9 118.5,327.2 119.2 C 326.4 120,325.8 119.7,325.1 117.7 C 323.6 113.9,319.3 114,315.8 118 M 373.7 302.7 C 373.3 303,373 304.1,373 305 C 373 306,372.4 307.3,371.6 307.9 C 370.1 309.2,369 314.6,368.7 322.4 C 368.5 328,370.7 330.7,373.4 328 C 374.8 326.6,375.6 319.1,374.9 313.5 C 374.7 312.4,375 309.4,375.4 306.8 C 376.1 302.4,375.4 300.9,373.7 302.7 M 358.3 317.5 C 358 318.4,358 319.4,358.4 319.7 C 359.1 320.4,362 318.1,362 316.9 C 362 315.4,359 315.9,358.3 317.5 M 430 327.1 C 430 328.6,430.7 330,431.5 330.4 C 433.4 331.1,433.4 330.2,431.5 327 L 430.1 324.5 430 327.1 M 363.3 352.5 C 363 353.4,363 354.4,363.4 354.7 C 364.2 355.6,367.1 352.9,366.4 351.9 C 365.6 350.5,364 350.8,363.3 352.5 M 333.5 389 C 333.2 389.5,329.8 389.7,325.7 389.5 C 317.1 388.9,315.2 389.4,314 392.6 C 313.4 394,312.2 395,311 395 C 309.9 395,308.2 395.4,307.2 395.9 C 306.3 396.4,304.2 397.2,302.6 397.6 C 293.6 400.3,304.4 404.1,325.4 405.6 C 344.3 406.9,362.2 406.3,368.1 404 C 374.2 401.8,378.6 397.9,377.7 395.6 C 377 393.9,367.3 390.9,360.6 390.4 C 358 390.2,355.6 389.9,355.3 389.6 C 355 389.4,353.6 389.6,352 390.1 C 349.9 390.9,348.4 390.8,346.1 389.6 C 342.8 387.8,334.5 387.4,333.5 389 M 386.2 393 C 382.5 395.3,382.2 396.5,385.1 398.1 C 389.3 400.3,394.9 396.6,393.4 392.6 C 392.6 390.5,390.2 390.6,386.2 393 M 239.2 399.2 C 236.4 400.6,236.4 401.6,239.1 403.1 C 241.2 404.2,242.4 404.1,252.9 402.1 C 258.5 401,259.8 400.4,258.7 399.3 C 257.4 398.1,241.6 398,239.2 399.2 M 309.5 418 C 304.6 418.9,298 420.2,295 420.8 C 286.3 422.5,281.7 423.6,278.5 425 L 275.5 426.3 278.5 427.1 C 280.1 427.6,283.4 428.1,285.8 428.2 C 288.4 428.4,290.7 429.1,291.7 430.2 C 292.7 431.3,294.7 432,296.9 432 C 298.9 432,304 432.7,308.3 433.5 C 312.6 434.3,319.1 435,322.7 435 C 328.8 435,329.4 435.2,332.7 438.5 C 334.6 440.4,337.1 442,338.1 442 C 339.2 442,341.2 443.2,342.5 444.6 C 344.7 446.9,345.3 447.1,347.9 446.2 C 349.8 445.5,351.2 445.5,351.5 446.1 C 352.5 447.5,355 447.2,355.7 445.4 C 356 444.6,355.7 442.8,355 441.6 C 353.4 438.6,354.9 435.7,358.7 434.2 C 370.1 430,378 429,385 431 C 389.3 432.2,390.3 431.3,390.4 425.8 C 390.5 422.4,390.9 421.3,392.8 420.5 C 395.9 419.1,395.6 418,392 418 C 390 418,389 418.5,389 419.6 C 389 421.7,383 424,377.4 424 C 373.6 424,372.7 423.6,372.3 422 C 372 420.9,370.8 419.8,369.6 419.5 C 368.5 419.3,365.2 418.6,362.5 418.1 C 359.8 417.5,348.7 416.8,338 416.6 C 321.9 416.2,316.9 416.5,309.5 418 M 244.6 426.1 C 241.7 428.4,241.2 430.5,243.6 431.4 C 246.2 432.4,253 432.1,255.3 430.8 C 256.5 430.2,259.1 429.7,261.1 429.9 C 265.2 430.1,270 428.6,270 427 C 270 425.3,265.5 424.8,259.5 425.9 C 254.7 426.8,253.2 426.7,251.4 425.5 C 248.4 423.5,247.8 423.6,244.6 426.1 M 347.2 454.5 C 343.8 456,343.1 457.4,345.5 458.4 C 347.8 459.3,353.1 457,352.8 455.2 C 352.4 453,351 452.9,347.2 454.5 M 356 458.5 C 356 460.6,359.7 462.2,363.1 461.5 C 367.1 460.6,366.8 459.3,362.2 458.1 C 357.2 456.7,356 456.7,356 458.5 M 327.1 482.8 C 322.8 484.5,319.9 487.3,321.2 488.6 C 321.6 488.9,323.9 489.5,326.5 489.7 C 330.8 490.2,331 490.1,331 487.7 C 331 486.2,331.9 484.5,333 483.7 C 334.9 482.3,334.7 480.9,332.6 481.1 C 332 481.1,329.5 481.9,327.1 482.8 M 340.2 482.8 C 338.9 483.2,337.2 484.6,336.5 485.9 C 335.3 488.2,335.5 488.5,338.9 490.8 C 342.3 493.1,342.8 493.2,347.5 492.1 C 350.2 491.4,354.2 490.8,356.4 490.9 C 360.2 491,369.7 488.4,371.5 486.8 C 372.1 486.3,371.8 485.4,370.8 484.3 C 369.4 483,366.6 482.6,355.8 482.4 C 348.5 482.2,341.4 482.4,340.2 482.8 M 350.5 497.7 C 338.8 498.2,323.4 502,332.9 502 C 334.5 502,338.1 502.5,340.7 503.1 C 346.1 504.4,373 503.4,373 502 C 373 501.1,359.9 496.9,357.8 497.2 C 357.1 497.3,353.8 497.5,350.5 497.7 M 391.7 502.2 C 386.5 504.1,390 504.7,406 504.9 C 421.6 505,424.6 504.4,420.1 502 C 417.6 500.7,395.4 500.8,391.7 502.2 M 179.5 558.1 C 174.6 558.5,167.3 559.3,163.5 560 C 159.7 560.7,154.4 561.3,151.9 561.4 C 143.6 561.8,138.9 566.8,141.6 572.2 C 143.4 575.6,144.6 575.7,169.9 573.5 C 201 570.8,207.9 568.8,208 562.3 C 208 560.2,204.9 558.3,203.2 559.4 C 202.7 559.7,200.6 559.3,198.4 558.5 C 194.2 557,193.1 557,179.5 558.1 M 151.4 596.1 C 150.5 597.6,152.4 599.3,154.6 598.8 C 157.6 598.3,157.6 595,154.6 595 C 153.2 595,151.8 595.5,151.4 596.1"/><path fill="#352b29" fill-rule="evenodd" d="M 309.5 63.4 C 308.9 63.6,306.5 64.3,304 65.1 C 294.4 67.9,282 79.6,282 85.9 C 282 87,281.6 88.2,281 88.5 C 279.6 89.3,279.7 107.2,281.1 110.7 C 283.5 116.7,284.6 118.7,289.2 125.7 C 291.9 129.6,294 133.2,294 133.6 C 294 134,286.6 141.6,277.5 150.5 C 268.4 159.4,261 167.3,261 167.9 C 261 168.6,259.4 171,257.5 173.3 C 255.6 175.5,254 177.8,254 178.3 C 254 178.8,252.2 181.2,250 183.7 C 247.8 186.2,246 188.8,246 189.4 C 246 190,244.6 192.3,242.9 194.3 C 240.7 196.9,240.1 198.5,240.8 199.2 C 241.4 199.8,242 199.8,242.4 199.1 C 242.8 198.5,243.8 198,244.5 198 C 246.3 198,245.5 200.4,242.2 204.9 C 240 207.8,239.6 208,238.8 206.6 C 237.5 204.4,235.5 206,233.4 210.9 C 231.2 216,228.8 220.7,225.7 226.3 C 224.2 228.9,223 231.7,223 232.4 C 223 233.2,222.4 234,221.7 234.3 C 220.3 234.8,211.9 251.4,206.9 263.5 C 205.8 266.2,203 274.8,201.9 278.5 C 201.5 280.1,200.6 283.3,200 285.5 C 196.5 297.5,195 322.8,197 334.5 C 200.3 353.6,208 368.3,224.6 387.7 C 232.4 396.7,232.8 397.9,229.6 402.7 C 222.3 413.8,222.9 420.2,232.2 430.7 C 237.3 436.5,238 437.8,238 441.5 C 238 451.4,233.5 457.8,223.3 462.7 C 219.5 464.5,213.4 470.9,211.8 474.8 C 210.8 477.3,210.2 480.5,208.4 492.3 C 207.6 497.9,203.9 502.1,197.7 504.2 C 189.2 507.2,186.3 508,184.2 508 C 183.1 508,181.1 508.4,179.8 508.9 C 178.5 509.4,175.5 510.3,173 511 C 168.5 512.2,166.9 512.7,159.5 514.9 C 155.4 516.2,151.8 517.6,148.8 519.1 C 147.8 519.6,146.5 520,146 520 C 144.1 520,133.4 527.7,131.7 530.3 C 125.5 539.8,124.1 559.1,129 569 C 131.3 573.7,131.2 577.1,128.5 582.2 C 123.2 592.4,125.8 603.8,133.6 604.2 C 135.5 604.3,137.8 604.4,138.8 604.4 C 141.3 604.5,140.5 599.2,137.4 595.9 C 133.9 592.2,134.4 591.7,140.9 592.3 C 144.7 592.6,148.3 592.3,150.7 591.4 C 152.8 590.7,156.4 590.1,158.6 590 C 161.1 590,163.3 589.4,164 588.5 C 165.6 586.6,169.4 586.9,169.6 589 C 169.7 589.8,169.8 590.9,169.9 591.4 C 169.9 591.9,170.9 591.5,172.1 590.4 C 174.1 588.6,174.2 588.6,176 591 C 177.3 592.7,177.5 593.8,176.9 594.6 C 176.2 595.4,176.3 596,176.9 596.4 C 177.8 597,187.6 596,196.8 594.3 C 199.3 593.9,200 594.1,200 595.3 C 200 597.5,201.8 598.4,203.5 597 C 205.1 595.6,241.1 594.1,248 595.1 C 253.3 595.9,276.9 594.5,281.4 593.1 C 283.1 592.6,291.6 591.9,300.3 591.6 C 310.8 591.2,317.1 590.5,318.9 589.6 C 320.3 588.8,322.8 588.4,324.3 588.7 C 326.1 589.1,327.7 588.7,328.9 587.6 C 329.9 586.7,331.4 586.2,332.4 586.6 C 333.3 586.9,335.5 586.5,337.4 585.6 C 339.6 584.5,345 583.8,353.6 583.4 C 362 583,367.1 582.3,368.4 581.4 C 370.6 579.9,374.6 580.5,377.1 582.7 C 378 583.5,381.6 584.2,385.4 584.4 C 389.1 584.6,392.7 585.3,393.5 586 C 396.8 588.7,417.9 592.8,429.6 593 C 437.2 593.1,450.5 591.6,455 590.1 C 456.9 589.5,461.8 589,465.8 589 C 472.3 589,473.4 588.7,475.7 586.4 L 478.4 583.7 476.2 582 C 474.8 580.8,470.7 579.9,463.8 579.1 C 458.1 578.5,450.1 577.4,446 576.8 C 441.5 576.1,420.5 575.6,393 575.5 C 368 575.4,340.3 574.8,331.5 574.1 C 322.7 573.5,307.2 572.5,297 571.9 C 286.8 571.3,275.1 570.6,271 570.4 C 266.9 570.1,259.2 569.2,254 568.3 C 239.3 565.9,223 565.5,217.2 567.5 C 210.4 569.8,197.7 571.9,183.2 573 C 176.2 573.6,164.6 574.7,157.3 575.5 C 141.9 577.2,139.6 576.8,137.4 571.4 C 135 565.6,135.8 563.9,142 561.6 C 145 560.6,150 559.6,153 559.4 C 156 559.3,160.1 558.9,162 558.6 C 176.2 556.3,188.5 555.7,200.7 556.9 C 239.3 560.5,243.2 560.4,266 556.5 C 271.2 555.6,278.4 554.5,282 554 C 285.6 553.5,290.1 552.7,292 552.1 C 293.9 551.5,296.3 551.3,297.2 551.6 C 298.2 551.9,302.3 551.6,306.3 551 C 310.2 550.4,316.4 549.8,320 549.6 C 323.6 549.3,331.9 548.7,338.5 548.1 C 355.3 546.6,370.4 547.1,372.8 549.3 C 373.8 550.2,375.4 551,376.3 551 C 377.2 551,379.1 551.5,380.5 552.2 C 382.3 553,383.6 553,385.4 552.2 C 387.1 551.5,389.5 551.4,393.6 552.2 C 396.9 552.8,402.4 553.2,406 553.1 C 409.6 553,414.8 553.5,417.6 554 C 425.3 555.6,450.3 555.2,453.1 553.4 C 455.4 552,464.3 551.2,469.4 552 C 472.3 552.4,475.9 552.3,477.9 551.7 C 479.9 551.1,482.6 550.8,483.9 550.8 C 486.8 551,492 546.5,492 543.8 C 492 542.9,490.1 539.3,487.8 536 C 482.6 528.3,483.2 527.6,493.5 528.5 C 499.6 529.1,501.8 529.8,504.1 531.8 C 506.2 533.5,507.4 534,508.2 533.2 C 509.9 531.5,502.7 524.6,495.3 521.1 C 491.6 519.3,487.7 517.4,486.8 516.9 C 485.8 516.4,484.3 516,483.5 516 C 482.7 516,481.2 515.6,480.2 515.1 C 479.3 514.6,476.5 513.6,474 513 C 471.5 512.3,468.6 511.4,467.5 511 C 466.4 510.5,464.4 509.9,463 509.5 C 461.6 509.2,458.9 508.4,457 507.8 C 455.1 507.3,451.2 506.5,448.5 506 C 429.7 503,426.8 501.9,426 497.5 C 425.5 494.7,425.1 494.5,420 493.9 C 402.3 491.8,398.1 491.1,394.2 489.5 C 391.9 488.6,390 487.2,390 486.5 C 390 484.8,397.1 480,399.7 480 C 402.3 480,413 475.3,413 474.1 C 413 472.8,409.3 470.6,402.5 467.9 C 396.9 465.7,395.2 465.5,376 465.5 C 362.1 465.4,354.8 465,353.3 464.2 C 352.1 463.5,346.7 463,340.8 462.9 C 325.3 462.7,318.4 461.8,318.9 460 C 319.2 459.2,319.3 457.4,319.2 456 C 319.1 454,320 453,323.3 451.2 C 325.6 450,328.5 449,329.6 449 C 332.5 449,334.4 446.8,332.8 445.2 C 332.1 444.5,330.6 444,329.4 444 C 328.1 444,326.1 442.7,324.7 440.9 C 321.9 437.3,321 437.1,296.2 433.5 C 279.4 431,277 430.9,266 431.9 C 259.5 432.5,251.3 433,247.7 433 C 241.5 433,241.2 432.9,237.2 428.8 C 234.9 426.4,232.1 423.7,231 422.7 C 228.4 420.5,228.8 417.4,231.5 417.8 C 232.6 417.9,236.2 418,239.6 418 C 243 418,247.2 418.6,249.1 419.4 C 255.8 422.2,270.6 422.4,286.7 420.1 C 326.7 414.3,346.8 413,359.2 415.4 C 369.8 417.5,379.1 418.1,382.5 417.1 C 395.6 412.9,396.6 411.1,388.1 406.8 C 382.2 403.8,375.3 403.2,369 405.1 C 362.6 407,346.1 409,343.8 408.1 C 342.5 407.7,335.8 407,328.7 406.6 C 321.7 406.2,312.5 405.3,308.2 404.5 C 300.5 403.1,287.2 399.5,286.2 398.6 C 285.3 397.7,286.9 395,288.7 394.4 C 289.7 394.1,292.5 393,295 391.9 C 297.5 390.8,301.8 389.5,304.5 389 C 315.6 386.9,317.4 386.4,317.7 385.3 C 318 384.6,317 383.5,315.6 382.9 C 313.3 381.8,310 377.1,310 374.9 C 310 374.5,311.4 373.7,313 373.1 C 316.8 371.8,316.8 370.5,313 367 C 309.4 363.6,309.3 362.4,312.5 359.4 C 313.9 358.2,314.8 356.5,314.5 355.8 C 314.3 355.1,315.4 352.9,317 351 C 319.9 347.7,320.2 347.6,323.2 348.8 C 326 349.8,326.6 349.7,328.3 347.9 C 329.7 346.4,330.5 346.2,331.5 347 C 334 349.1,338 345.4,338 341 C 338 338.9,338.7 336.7,339.5 336 C 340.3 335.3,341 333.7,341 332.4 C 341 330.5,341.5 330.2,343.8 330.3 C 346 330.5,346.6 330.1,346.8 327.8 C 347 326.4,347.8 324.6,348.6 324 C 349.4 323.3,350 321.8,350 320.6 C 350 319.4,350.7 317.4,351.6 316.2 C 352.4 315,353 313.2,352.9 312.2 C 352.5 307.8,353.3 305.6,356.9 301.7 C 359 299.4,361.3 295.8,362 293.7 C 362.7 291.6,364.5 288.7,366.1 287.3 C 368.3 285.3,368.7 284.4,367.9 283.4 C 367.3 282.6,367.1 281.3,367.4 280.3 C 368 278.9,368.6 279.2,371.4 281.9 C 373.8 284.2,375.4 285,376.8 284.6 C 380.3 283.5,382.2 284.9,381.5 288.2 C 381.1 290,381.3 291.7,382.2 292.7 C 382.9 293.6,383.6 296.6,383.7 299.4 C 383.9 302.2,384 306.3,384.1 308.5 C 384.2 310.7,384 314.3,383.6 316.5 C 383.2 318.7,382.7 322,382.4 323.8 C 382.1 325.5,380.7 328.1,379.2 329.5 C 377.1 331.4,376.6 332.7,376.9 335.5 C 377.1 338.3,376.5 339.8,374.1 342.5 C 371.7 345.3,371.2 346.5,371.7 349.3 C 372 351.2,371.5 354.7,370.6 357.2 C 369.7 359.9,369.3 363.3,369.7 365.3 C 370.2 368.6,369.9 369,366.1 371.5 C 363 373.4,362 374.6,362.5 375.9 C 362.8 377,362.2 378.4,361 379.5 C 356.6 383.5,359.4 388,366.4 388 C 368.3 388,370.2 388.5,370.6 389.1 C 370.9 389.7,372.6 390,374.4 389.7 C 384.7 387.9,387.2 387.1,390.5 384.4 C 395.5 380.5,396 380.2,399.3 379 C 400.8 378.5,402.5 376.8,403.1 375.3 C 407.1 365.1,410.8 358.8,413.5 357.1 C 415.9 355.7,416.8 354.2,417.7 350.3 C 418.4 347.5,420.2 343.3,421.9 340.8 C 425.9 334.9,427.3 324.7,427.4 300 C 427.4 284.2,427.1 279.1,425.6 273 C 424.5 268.4,423.6 260.9,423.5 253.5 C 423.3 246.4,422.6 239.6,421.7 236.8 C 420.9 234.2,420.4 231.9,420.7 231.7 C 421.1 231.2,417.8 224.1,414.3 217.9 C 397.8 189.2,379.1 167.7,352.2 146.3 C 342.4 138.6,339.6 138.2,345.6 145.5 C 350.1 151,348.8 151.3,342.9 146.1 C 338.4 142.2,333 139,330.9 139 C 330.2 139,328.9 139.7,327.9 140.6 C 326.2 142.1,325.8 142.1,321.8 140.2 C 319.4 139,315 137.2,311.9 136.1 C 304.7 133.4,303.2 132.2,302.1 128.3 C 301.1 124.8,302.7 122.3,305.5 123.3 C 307.6 124.2,307.9 123,307 118 C 306 113,307.5 110.8,310.9 111.7 C 313.5 112.4,314.5 110.3,312.9 107.3 C 311.7 105.1,311.8 104.7,313.7 103.2 C 314.8 102.2,317.8 99.8,320.2 97.7 C 326.7 92.3,330.6 91.2,333.3 93.8 L 335.4 96 333.2 98.3 C 330.2 101.5,330.3 102,335.6 106.4 C 339.5 109.7,340.6 110.2,342.8 109.4 C 345.4 108.5,346.1 107.6,348 102.2 C 349 99.7,349.6 99.2,350.5 100 C 352.3 101.5,352.8 100.3,353.1 93.5 C 353.4 88.8,352.9 86.5,351 82.7 C 347.8 76.2,337.6 66.9,332.2 65.2 C 328.1 64,311.5 62.7,309.5 63.4 M 311.5 191 C 310.7 192.3,312.6 208.1,314.7 217 C 316.7 226,320.5 229.7,322.9 225.1 C 323.7 223.6,323.4 222.4,321.4 219.4 C 318.9 215.8,318.8 215,319.3 207.6 C 319.7 201.5,319.5 198.9,318.2 196.1 C 315.8 191,312.9 188.8,311.5 191 M 301.5 264.2 C 301.2 265.4,300.6 269.1,299.4 278.5 C 298.9 282.5,300.2 286.1,301.6 284.7 C 302.1 284.3,302.5 281.7,302.6 278.9 C 302.8 276.2,303.2 271.5,303.5 268.5 C 304 264.6,303.9 263,303.1 263 C 302.5 263,301.8 263.6,301.5 264.2 M 368.7 267.6 C 367.6 268.7,367.9 276.2,368.9 275.5 C 370.3 274.7,371.3 268.9,370.3 267.9 C 369.8 267.4,369.1 267.3,368.7 267.6 M 298.3 289.2 C 297 290.9,295.7 297.6,295.8 302 C 295.9 303.9,296 306.6,296 308 C 296 311.2,298.1 318,299.1 318 C 301 318,302.8 298.1,301.4 291.1 C 300.7 287.8,299.8 287.3,298.3 289.2 M 324 356.5 C 323 357.6,323 358.4,323.8 359.2 C 325.3 360.7,328.2 359.4,327.8 357.3 C 327.4 355,325.6 354.6,324 356.5 M 289 363.5 C 289 364.4,289.5 365,290.1 364.8 C 290.7 364.6,291.1 364,291.1 363.5 C 291.1 363,290.7 362.4,290.1 362.2 C 289.5 362,289 362.6,289 363.5 M 296.2 375.8 C 296.5 379.3,296.7 379.5,300.2 379.8 C 306.8 380.4,307.6 378.9,302.8 375.2 C 297.2 370.9,295.8 371,296.2 375.8 M 353.1 378.4 C 352.4 379.2,350.9 380,349.7 380.2 C 348.5 380.4,347.5 381.2,347.5 382 C 347.5 384.4,351.2 384.2,354.4 381.7 C 356.8 379.7,357 379.2,355.7 378.2 C 354.6 377.2,354 377.3,353.1 378.4 M 328.2 382.3 C 325.8 384.9,326.2 386,329.5 386 C 332.7 386,334.6 383.5,333 381.5 C 331.3 379.5,330.7 379.6,328.2 382.3 M 340 382.5 C 338.4 384.4,339.6 386,342.5 386 C 345.7 386,346.7 384,344.5 382.3 C 342.1 380.6,341.5 380.7,340 382.5 M 240.8 395.7 C 236.9 397.3,234 402.4,235.9 404.3 C 237.4 405.8,255 404.5,259.8 402.5 C 266 399.9,265.1 397.9,257 396.4 C 253.4 395.8,249.2 395,247.5 394.7 C 245.8 394.4,242.9 394.8,240.8 395.7 M 372.7 431.9 C 370.6 432.4,368.4 433.2,367.7 433.9 C 367.1 434.5,365.4 435,363.9 435 C 360 435,358.2 437.5,360.4 439.9 C 362.1 441.8,362 442.1,359.6 446.3 C 356.9 450.9,356.4 453.5,358 454.5 C 360.1 455.8,374.5 459.1,379 459.3 C 384.6 459.5,387.5 457.7,386.5 454.6 C 385.5 451.6,384.9 447.4,384.4 440 C 384.2 436.5,383.6 433.2,383.2 432.8 C 381.9 431.5,376.7 431.1,372.7 431.9 M 397.4 454.3 C 396.6 456.6,400.2 463.3,403 464.6 C 404.4 465.3,407.4 466.4,409.8 467.1 C 412.2 467.8,414.9 468.9,415.8 469.6 C 417.4 470.8,417.4 471,415.5 472.4 C 413.7 473.7,413.7 473.9,415.2 474.5 C 416.1 474.9,418.1 475,419.7 474.8 C 422.1 474.6,422.4 474.1,422.1 472 C 421.8 469.2,416.4 464.1,413.8 464 C 412.9 464,411.8 463.6,411.5 463 C 411.2 462.4,409.9 462,408.8 462 C 406.2 462,400 457.4,400 455.5 C 400 453.5,398.1 452.6,397.4 454.3 M 217.4 480.8 C 216.6 481.6,216 483.4,216.2 484.9 C 216.5 487.4,216.6 487.5,223 487.2 C 230.5 486.8,233 485.7,233 483 C 233 480.3,231.3 479.5,224.7 479.4 C 220.7 479.3,218.4 479.7,217.4 480.8 M 328.1 480.6 C 325.7 481.7,323.2 482,320.4 481.5 C 317.6 481.1,314.9 481.4,312.1 482.6 C 309.9 483.5,307.3 483.9,306.4 483.6 C 304.7 482.9,297 485.1,297 486.3 C 297 487.5,301.8 489,306.1 489 C 309 489,310.2 489.5,310.7 490.8 C 311 491.7,312.2 493.5,313.4 494.8 L 315.5 497.1 313 499 C 311.6 500.1,309.8 501,309 501 C 308 501.1,308.3 501.4,309.6 502 C 315.3 504.3,376.8 505.5,379 503.4 C 379.7 502.6,375.9 500,374.1 500 C 373.2 500,370 498.8,367 497.4 L 361.5 494.8 363.8 493 C 365 492,368.4 490.4,371.3 489.5 C 377.1 487.6,379.3 486,377.2 485.3 C 376.5 485,374.5 483.6,372.8 482.2 C 369.8 479.6,369.5 479.6,357.1 479.9 C 340.5 480.3,338 480.3,334.5 479.6 C 332.8 479.3,330 479.7,328.1 480.6 M 394 500.6 C 391.9 501.2,387.9 502.1,385.3 502.5 L 380.5 503.3 384.2 504.9 C 387.1 506.3,391.6 506.6,407.4 506.8 C 418.2 506.9,427 506.6,427 506.1 C 427 505.6,425.5 504.1,423.7 502.7 C 420.8 500.5,419.3 500.2,409.2 499.9 C 402.4 499.6,396.3 499.9,394 500.6 M 340 510.9 C 339.2 511.5,337 511.9,335.2 511.8 C 332.1 511.7,329 513.3,330.2 514.5 C 331.4 515.8,356.7 516.2,362 515 C 368.9 513.5,370.4 513.5,376.2 514.4 C 381.6 515.3,382.6 514.1,378.2 512 C 374.8 510.4,342.2 509.5,340 510.9 M 429 513.9 C 429 515.2,432.7 516.3,437.1 516.3 C 441.6 516.3,443.8 515.1,441.9 513.9 C 440 512.7,429 512.8,429 513.9 M 485.6 583.3 C 483.2 585,483.9 588.4,486.7 588.8 C 489.5 589.2,491.7 585.6,489.9 583.4 C 488.5 581.7,487.9 581.6,485.6 583.3 M 162 595.9 C 161 597.8,161.1 598.5,162.4 599.8 C 163.8 601.3,164.2 601.3,165.5 599.9 C 166.9 598.5,166.9 598.1,165.2 596 L 163.3 593.6 162 595.9 M 144 597.5 C 143 598.7,143.1 599.1,144.5 599.6 C 146.4 600.4,148.5 598.7,147.6 597.1 C 146.6 595.6,145.5 595.7,144 597.5 M 151.5 602 C 150.7 603.3,153.5 604.4,155.6 603.6 C 157.6 602.8,156.5 601,154 601 C 153 601,151.8 601.5,151.5 602"/><path fill="#433835" fill-rule="evenodd" d="M 309.5 63.4 C 308.9 63.6,306.5 64.3,304 65.1 C 294.4 67.9,282 79.6,282 85.9 C 282 87,281.6 88.2,281 88.5 C 279.6 89.3,279.7 107.2,281.1 110.7 C 283.5 116.7,284.6 118.7,289.2 125.7 C 291.9 129.6,294 133.2,294 133.6 C 294 134,286.6 141.6,277.5 150.5 C 268.4 159.4,261 167.3,261 167.9 C 261 168.6,259.4 171,257.5 173.3 C 255.6 175.5,254 177.8,254 178.4 C 254 178.9,252.7 180.8,251.1 182.5 C 249.5 184.1,247.2 187.2,246.1 189.3 C 243.9 193.2,243.9 193.2,246 193.7 C 249.5 194.6,248.6 198.2,242.7 207.2 L 239.5 211.9 237.4 209.3 L 235.3 206.6 233.5 210.6 C 231.1 216,228.8 220.7,225.7 226.3 C 224.2 228.9,223 231.7,223 232.4 C 223 233.2,222.4 234,221.7 234.3 C 220.3 234.8,211.9 251.4,206.9 263.5 C 205.8 266.2,203 274.8,201.9 278.5 C 201.5 280.1,200.6 283.3,200 285.5 C 196.5 297.5,195 322.8,197 334.5 C 200.3 353.6,208 368.3,224.6 387.7 C 232.4 396.7,232.8 397.9,229.6 402.7 C 222.3 413.8,222.9 420.2,232.2 430.7 C 237.3 436.5,238 437.8,238 441.5 C 238 451.4,233.5 457.8,223.3 462.7 C 219.5 464.5,213.4 470.9,211.8 474.8 C 210.8 477.3,210.2 480.5,208.4 492.3 C 207.6 497.9,203.9 502.1,197.7 504.2 C 189.2 507.2,186.3 508,184.2 508 C 183.1 508,181.1 508.4,179.8 508.9 C 178.5 509.4,175.5 510.3,173 511 C 168.5 512.2,166.9 512.7,159.5 514.9 C 155.4 516.2,151.8 517.6,148.8 519.1 C 147.8 519.6,146.5 520,146 520 C 144.1 520,133.4 527.7,131.7 530.3 C 125.5 539.8,124.1 559.1,129 569 C 131.3 573.7,131.2 577.1,128.5 582.2 C 125.3 588.4,124.8 596.3,127.5 600.3 C 129.6 603.6,130.8 603.7,132 600.6 C 132.5 599.3,133.4 597.9,134 597.5 C 134.8 597,134.6 596.2,133.4 594.9 C 132.1 593.5,132 592.7,132.9 591.6 C 134.4 589.8,142.7 588.5,144.4 589.9 C 145.9 591.2,158.2 589.4,162.6 587.2 C 166.7 585.2,179.9 586.9,183.2 589.8 C 184.8 591.1,185.2 591.1,186.8 589.8 C 190.3 586.8,200.8 588.1,209.3 592.7 C 210.8 593.5,212.4 593.8,213 593.5 C 213.5 593.2,227.8 592.7,244.6 592.5 C 271.9 592.1,275.9 591.8,280.4 590.1 C 294.3 584.8,302.7 583.8,308.2 586.6 C 310.6 587.8,311.8 588,313.7 587.1 C 315 586.5,317.1 586,318.4 586 C 319.7 586,322 585,323.5 583.8 C 325.9 581.9,327.4 581.6,333.6 581.8 C 337.6 581.9,341.2 581.6,341.5 581 C 341.8 580.5,343.6 580,345.4 580 C 347.2 580,349 579.7,349.4 579.2 C 349.8 578.8,350.6 578.5,351.1 578.5 C 351.6 578.5,352 578.2,352 577.8 C 352 577,351.7 576.9,350.2 577.1 C 348 577.4,341.4 576.7,339.4 576 C 338.2 575.5,327.8 574.6,316.3 573.9 C 304.9 573.3,293.7 572.7,291.5 572.5 C 289.3 572.3,280.1 571.7,271 571.1 C 262 570.5,249.2 569.5,242.5 568.9 C 231.6 567.8,229.1 567.9,215.5 569.8 C 201.4 571.9,189.3 573.2,172.7 574.5 C 168.7 574.9,160.5 575.8,154.3 576.5 C 141.4 578.2,138.9 577.7,136.4 572.9 C 134.2 568.6,133.1 559.5,134.2 555.1 C 135 552,135.8 551.2,139 550.2 C 144.5 548.5,145.3 548.7,148 551.5 C 149.8 553.5,150.6 553.7,152.2 552.9 C 153.6 552.1,154.5 552.1,155.3 552.9 C 157 554.6,158.6 554.2,161.8 551.5 C 165.5 548.4,165.8 548.4,166.2 551.8 L 166.5 554.5 179.5 554.6 C 186.7 554.6,199 555.2,207 555.9 C 237 558.5,244.6 558.3,266 554.5 C 270.7 553.6,277.6 552.6,281.5 552.1 C 285.4 551.6,289.8 550.7,291.5 550 C 293.1 549.4,295.9 549.1,297.7 549.5 C 299.5 549.8,304.9 549.4,309.7 548.7 C 314.5 547.9,319.6 547.3,321 547.3 C 322.4 547.3,327 546.8,331.3 546.2 C 335.7 545.5,339.6 545.2,340.1 545.6 C 340.6 545.9,344.9 545.4,349.6 544.5 C 354.3 543.6,359 543.2,360.1 543.5 C 361.6 544,362.3 543.5,363.1 541.1 C 365 535.6,370.9 538.5,373.5 546.3 C 374.3 548.8,375.1 549.5,377.2 549.5 C 378.6 549.5,380.2 549.8,380.6 550.2 C 381.8 551.5,384.7 551.1,386 549.5 C 386.9 548.4,387.7 548.3,389.2 549.1 C 390.3 549.7,392.3 549.9,393.7 549.5 C 395.4 549.1,396.9 549.5,398.1 550.6 C 399.6 551.9,402.7 552.3,415.2 552.6 C 423.6 552.8,432.5 553.1,435 553.3 C 437.5 553.5,440.9 553,442.7 552.2 C 445 551.2,446.4 551.1,447.8 551.9 C 449.4 552.7,450.8 552.5,454.2 551 C 456.6 549.9,460.7 549,463.6 549 C 468.4 549,472 547.1,472 544.5 C 472 544,472.9 542.6,474.1 541.4 L 476.2 539.2 473.2 537.6 C 471.5 536.7,468.9 536,467.5 536 C 464.5 536,463.4 534,464.9 531.1 C 465.7 529.7,465.7 528.4,464.8 526.5 C 463.3 523.1,465.1 521.7,470 522.6 C 471.9 523,477.8 523.4,483 523.5 C 490.3 523.7,493.6 524.3,497.4 526 C 500.5 527.4,502.6 527.8,503.2 527.2 C 504.3 526.1,500.8 523.5,493.5 520.1 C 490.8 518.8,487.7 517.4,486.8 516.9 C 485.8 516.4,484.3 516,483.5 516 C 482.7 516,481.2 515.6,480.2 515.1 C 479.3 514.6,476.5 513.6,474 513 C 471.5 512.3,468.6 511.4,467.5 511 C 466.4 510.5,464.4 509.9,463 509.5 C 461.6 509.2,458.9 508.4,457 507.8 C 455.1 507.3,451.2 506.5,448.5 506 C 431 503.2,426.8 501.8,426.2 498.5 C 425.6 495.5,424.4 494.7,422.1 495.9 L 420 497.1 422.2 500.1 C 425.2 504.1,434.4 508.4,446 511.1 C 451.2 512.3,457.5 514,460 514.8 L 464.5 516.4 460.1 518.3 L 455.7 520.2 458.1 522.1 C 459.4 523.1,460.6 525.1,460.7 526.5 C 460.9 529.1,460.7 529.2,457.2 528.6 C 455.2 528.2,451 527.5,448 527.1 C 445 526.6,438 525.5,432.6 524.6 C 427.1 523.7,422 523,421.1 523 C 420 523,419.9 522.7,420.8 521.8 C 422 520.6,431.6 520.4,435 521.5 C 437.2 522.2,438.5 520.6,436.7 519.3 C 434.4 517.6,421.5 516,418 517 C 416.2 517.5,414.3 517.7,413.8 517.3 C 413.2 517,410.5 516.5,407.6 516.1 C 401.3 515.4,400.4 512.8,406.3 512 C 411.8 511.3,411.2 509.6,405.2 508.7 C 398.5 507.6,391.7 509.6,391.2 512.8 C 390.6 516.5,386.3 517,356 516.4 C 340.3 516.1,325.2 515.9,322.5 515.9 C 315.4 515.9,308.9 515,309.5 514 C 309.8 513.6,313.3 512.9,317.2 512.5 C 321.2 512.1,327.3 511.2,330.8 510.4 C 334.3 509.6,338.2 509,339.5 509 C 342.2 509,343.7 507.3,342.2 505.8 C 341.6 505.2,331.6 504.6,317.9 504.3 C 305 504.1,293.9 503.7,293.2 503.4 C 291.2 502.8,292.8 501,295.3 501 C 299.2 501,302.1 498.2,301.4 495.2 C 300.4 491.2,298.9 489.8,296.1 490.3 C 293.5 490.8,286 486.9,286 485 C 286 484.5,287 483.4,288.2 482.6 C 291.1 480.9,318.3 478.8,321.7 480.1 C 323.3 480.7,325.2 480.5,328 479.4 C 330.6 478.3,333.2 478,335.3 478.4 C 339.7 479.4,340.7 479.4,356 478.6 C 367.3 478,369.9 478.1,372 479.4 C 383.5 486.5,386 486.8,392.1 481.9 C 393.5 480.8,396.6 479.4,399.1 478.9 C 401.5 478.3,404.5 477.2,405.8 476.4 C 409.1 474.3,407.4 472.6,399.2 469.9 C 393.3 467.9,391.3 467.8,379.6 468.3 C 372.4 468.6,363.4 468.4,359.5 467.9 C 355.6 467.3,349.8 466.7,346.5 466.5 C 343.2 466.3,334 465.4,326 464.6 C 318 463.7,310.9 463,310.2 463 C 307.8 463,309.1 461,312.4 459.6 C 314.2 458.8,316 457.7,316.4 457.2 C 317.4 455.5,315.2 454.8,312.9 456 C 309.3 458,308.1 455.5,311.3 452.6 C 312.8 451.2,314 449.6,314 449 C 314 448.5,315.8 448,317.9 448 C 322.7 448,324.2 446.2,321.2 444.2 C 320 443.4,319 442.2,319 441.4 C 319 439.7,316.2 438.2,313 438.1 C 308.5 438.1,304.5 437.4,302.5 436.3 C 296.4 433,272.1 431.8,257.2 434 C 245.7 435.7,241.9 434.9,235.5 429.4 C 230.1 424.9,227.3 420.2,228.3 417.6 C 229 415.8,235.7 416,258.9 418.5 C 274.7 420.2,283.6 419.8,310 416 C 313.6 415.5,321.9 414.5,328.5 413.9 C 335.1 413.3,340.8 412.6,341.3 412.3 C 344.7 410.2,337.1 408.4,314.5 406 C 309 405.4,298.4 403.3,291 401.4 C 276.3 397.6,271.7 397.3,268.2 399.6 C 261.9 403.7,253.1 406,243.4 406 C 233.9 406,233.8 406,234.5 403.8 C 234.8 402.5,235.4 399.4,235.7 396.9 C 236.2 392.6,236 392.1,233 390 C 231.2 388.7,228.5 385.8,227.1 383.4 C 225.6 381.1,222.9 378,221.2 376.5 C 219.4 375,218 372.9,218 371.7 C 218 370.6,216.9 368.5,215.6 367.1 C 214.2 365.6,212.8 363.3,212.5 361.8 C 211.9 359.5,212.2 358.9,214.3 357.9 C 217.8 356.3,219.8 357.3,220.2 360.7 C 220.5 363.1,220.9 363.5,223.4 363.3 C 227.1 363,228.6 364.2,231.4 369.8 C 232.8 372.6,235 374.9,237.6 376.3 C 240.7 378.1,241.6 379.3,242 381.9 C 242.3 383.8,243.2 385.6,244 386 C 244.8 386.4,246.9 387.5,248.7 388.4 C 250.4 389.3,252.5 390,253.4 390 C 254.3 390,255 390.7,255 391.5 C 255 394.1,257.7 394.3,260.9 391.9 C 264.5 389.2,271 389.7,274.4 392.9 C 277.2 395.6,278.1 395.5,284.2 392.5 C 286.9 391.1,290 390,291 390 C 291.9 390,294.4 389.3,296.3 388.5 C 298.3 387.7,301.4 387,303.3 387 C 307 387,310.7 384.9,309.7 383.3 C 308.8 381.9,290.2 382.4,288.7 383.9 C 288.1 384.5,285.2 385,282.2 385 C 277.9 385,276.2 384.5,273.5 382.3 C 270.2 379.7,270.2 379.5,271.6 376.8 C 272.4 375.2,273 372.9,272.8 371.7 C 272.6 370.1,273.2 369.4,275.5 368.7 C 280.3 367.2,281.4 366.5,282.7 363.9 C 284.4 360.3,288.7 356.6,290.2 357.4 C 293.5 359,300.5 364.8,300.6 366.1 C 300.8 369,301 369.2,302.5 368 C 303.3 367.3,303.7 366.4,303.4 365.9 C 302.2 363.9,304.3 356.8,306.6 354.7 C 307.9 353.6,309 351.6,309 350.4 C 309 343.7,313.9 338.8,317 342.5 C 318.1 343.8,318.6 343.6,321 341 C 322.7 339.1,324.8 338,326.4 338 C 328 338,329.3 337.3,329.7 336.2 C 330 335.3,334 330.9,338.5 326.5 C 348.4 316.9,349.3 315.5,350.1 306.5 C 351.2 295.6,352.8 289.8,356 285.4 C 358.6 281.8,358.8 281.1,357.5 280 C 355.4 278.3,355.6 276.6,358.1 275.5 C 360.8 274.2,361 272.6,358.4 272.2 C 355 271.5,354.5 270.1,357 267.5 C 359 265.4,359.1 264.8,357.9 263.4 C 356.9 262.1,356.6 259.4,356.9 253.4 C 357.2 246,356.9 244.7,355 242.3 C 353.3 240.1,352.9 238.5,353.2 234 C 353.4 229.4,353.1 227.9,351.2 225.5 C 349.7 223.6,349.1 221.9,349.5 220.5 C 350.7 216.8,350 207.6,348.5 206.4 C 347.7 205.8,346.8 203,346.4 200.2 C 345.5 193.4,347.5 190,352.5 190 C 356 190,357.3 191.1,357.5 194.2 C 357.6 195.2,358.4 196.8,359.3 197.8 C 360.2 198.8,361 200.9,361 202.4 C 361 204,361.7 205.3,362.8 205.7 C 365.9 206.8,368 209.3,368 211.8 C 368 213.1,368.9 215.5,370.1 217.1 C 372.8 221,374.1 225.6,373.1 228.3 C 372.3 230.4,373.1 233.3,376.6 240.3 C 377.5 242.2,377.6 243.8,377 245.5 C 376.3 247.2,376.5 248.5,377.8 250.2 C 378.7 251.5,380.3 254.1,381.2 256 C 382.7 259.2,383.5 262,386 273.7 C 386.5 276.1,387.6 279.2,388.3 280.7 C 390.4 284.9,391.3 302.6,389.6 305.3 C 388.8 306.5,387.5 311.9,386.7 317.3 C 385.9 322.6,384.2 329.1,382.9 331.7 C 381.7 334.2,380.5 337.5,380.4 338.9 C 379.3 349,378.1 354.2,376.7 355.8 C 374.1 358.6,374.6 360.5,378.7 363.9 C 382.1 366.7,382.3 367.2,381.2 369.1 C 379.6 371.7,379.8 371.9,385.8 374 C 393.5 376.7,397.1 375.6,401.6 369 C 403.7 366,406.9 360.6,408.7 357.1 C 410.5 353.6,412.9 349.3,414 347.5 C 415.6 345,415.9 343.2,415.4 340.3 C 414.9 337,415.2 335.9,417.5 333.2 C 418.9 331.5,419.8 329.5,419.5 328.9 C 419.1 328.3,418.7 325.1,418.5 321.8 C 418.4 317,418.7 315.4,420.2 314 C 421.7 312.7,421.9 311.7,421.2 310.3 C 420.1 308.1,420.8 300,422.2 300 C 422.7 300,423.8 298.4,424.5 296.6 C 426.6 291.6,425.4 280.9,420.9 262.5 C 420.3 260.3,419.3 256,418.6 253 C 417.9 250,416.7 246.4,415.9 245 C 415 243.4,414.5 239.1,414.5 232.5 C 414.4 227,413.8 220.5,413 218 C 409.2 205.7,388.2 178.3,369.3 160.8 C 358.9 151.3,346.8 142,345.7 142.7 C 345.2 143,347.6 146.1,351.1 149.6 C 354.6 153.1,357.1 156,356.7 156 C 354.8 156,345.6 150.6,340.6 146.5 C 334.2 141.3,333.8 141.2,331.8 144.1 C 330.5 146.1,329.9 146.2,324.4 145.4 C 319.4 144.6,318.5 144.2,318.2 142.2 C 317.8 139.8,315.2 138.2,307.3 135.6 C 301.5 133.7,299.6 131.4,297.7 123.9 C 296.7 120.3,295.3 117.9,292.7 115.5 C 287 110.3,288 106.6,294.3 109.6 C 299 111.9,306.9 109.8,308.8 105.7 C 309.5 104.2,310.5 103,310.9 103 C 312.6 103,322.9 92.1,326.3 86.8 C 328.7 83,330.4 81.2,331.3 81.6 C 333.5 82.4,338.3 94.5,337.8 98 C 337.5 100.1,337.9 101.5,339.3 102.7 C 341.1 104.4,341.2 104.4,342.6 102.5 C 344.7 99.7,344.4 93.4,342 91 C 340.9 89.9,340 88.1,340 86.9 C 340 85.7,338.6 83.5,336.9 81.9 C 333.5 78.7,333.6 76,337 76 C 340.2 76,343.2 77.8,346.6 81.7 C 350.5 86.2,352.7 85.4,349.9 80.5 C 346.7 75.1,336.9 66.7,332.2 65.2 C 328.1 64,311.5 62.7,309.5 63.4 M 333.4 154.5 C 331.9 156.8,331.9 157.6,333 161 C 334.4 165.4,335.4 165.8,338.1 163.4 C 339.1 162.5,340.7 162,341.6 162.4 C 343.7 163.2,342.7 169.6,340 172.5 C 338.3 174.3,338.2 175.6,338.7 181.7 C 339.4 190.3,340 191.6,342.7 190.1 C 344.1 189.4,344.9 187.6,345.4 184.2 C 345.7 181.6,346.7 178.4,347.6 177.1 C 349.6 174.3,348.4 169.4,344.5 164 C 343.1 162.2,342 160.2,342 159.7 C 342 158.3,337.1 152,336 152 C 335.5 152,334.3 153.1,333.4 154.5 M 302.8 159.6 C 301.1 160.5,298.9 163.5,296.9 167.6 C 293.7 174.1,293.7 174.2,295.5 177.2 C 296.5 178.9,297.9 181,298.7 181.9 C 305.9 190.1,308.9 195.8,310.4 204 C 312.9 217.8,314.7 224.9,318.5 235.5 C 320.5 241,322.4 246.4,322.7 247.5 C 323 248.6,324.5 252.1,325.9 255.2 L 328.6 261 329.9 256.1 C 330.7 252.8,330.9 247.4,330.5 239 C 329.9 227.9,329.6 226.4,327.4 223.4 C 325 220.3,324.9 220,326.5 217.6 C 328 215.3,328 214.8,326.6 212.3 C 324.9 209.2,322 198.1,322 194.7 C 322 191.6,316.6 182.6,313.7 180.7 C 311.9 179.5,311.4 178.5,311.7 176.6 C 312.1 174.9,311.6 173.9,310.1 173.1 C 308.9 172.4,308 171,308 169.8 C 308 168.6,307.2 166.8,306.3 165.8 C 304.9 164.2,304.8 163.5,305.8 162 C 308.3 158,307.3 157.3,302.8 159.6 M 305.6 221.2 C 305.3 222.5,304.9 227.7,304.5 232.8 C 304.1 239,303.1 244.3,301.6 248.3 C 298.8 255.4,296.9 266.6,294 291.8 C 292.7 302.9,294.4 313.6,298.6 320.8 C 302.9 328.1,303.5 326.3,303.7 305.4 C 303.8 286.9,304.1 282.9,307.6 256.5 C 309.4 242.3,309.5 240.2,308.7 229 C 308.4 224.9,308.1 220.9,308.1 220.2 C 307.9 218.1,306.1 218.9,305.6 221.2 M 361.5 278 C 361.1 278.6,361.2 279.6,361.8 280.2 C 362.4 280.8,363 280.8,363.5 280 C 363.9 279.4,363.8 278.4,363.2 277.8 C 362.6 277.2,362 277.2,361.5 278 M 205.8 294.8 C 201.8 306,201.3 329,204.7 342.4 C 206 347.9,209.5 356,210.5 356 C 210.7 356,211.8 354.7,213 353.1 L 215.1 350.1 212.9 343.8 C 209.8 334.5,208.8 327.1,210.2 323.7 C 211.1 321.3,211 320.3,209.7 318.1 C 208.3 315.7,208.3 315.2,210 311.6 C 211.3 308.7,211.5 307,210.9 305 C 210.4 303.6,210 301.5,210.1 300.5 C 210.2 299.4,210.2 296.6,210.2 294.2 C 209.9 288.5,207.9 288.8,205.8 294.8 M 383.5 381 C 382.7 382.2,385.5 383.4,387 382.5 C 387.6 382.2,387.8 381.4,387.5 380.9 C 386.7 379.7,384.3 379.7,383.5 381 M 364.7 407 C 361.5 408.1,358.5 408.8,358.1 408.6 C 356.8 407.8,353.6 410.6,354.4 411.8 C 354.8 412.5,356.2 413,357.6 413 C 359 413,361.4 413.7,363.1 414.5 C 367.6 416.9,381.8 417,385.3 414.7 C 388.5 412.6,388.8 410,386 407.5 C 382.9 404.7,371.9 404.4,364.7 407 M 373.5 432.9 C 366.4 434.6,365.7 435.8,364.7 448.5 C 364.6 450.8,364 451.5,362.3 451.5 C 359.7 451.5,359.2 453.5,361.8 453.5 C 362.7 453.6,364.7 454.4,366.1 455.3 C 369.8 457.8,379.4 459.4,382 458 C 383.8 457,384 456.2,383.5 452.7 C 383.2 450.4,382.8 445.5,382.6 441.7 C 382.1 432.3,380.8 431.2,373.5 432.9 M 399.6 457.9 C 398.4 459.8,403 463.4,409.5 465.6 C 413.3 466.9,416.7 467.7,417.2 467.4 C 418.5 466.6,416 464,413.9 464 C 412.9 464,411.8 463.6,411.5 463 C 411.2 462.4,409.9 462,408.8 462 C 407.6 462,405.2 460.9,403.4 459.5 C 401.6 458.1,399.9 457.4,399.6 457.9 M 217 479 C 215.7 480.3,215 482.3,215 485 C 215 488.6,215.3 489,217.4 489 C 221.9 489,243.5 485.8,244.3 485 C 245.3 484.1,239.8 480.6,235 479.2 C 233.1 478.6,228.7 477.9,225.2 477.6 C 219.9 477.1,218.7 477.3,217 479 M 374.8 489.3 C 367.3 492.2,366.1 493.4,368.4 495.9 C 370.2 497.9,377.4 500.9,382.7 501.7 C 384.4 502,388.4 501.4,391.7 500.4 C 395.4 499.3,400.9 498.6,406.7 498.6 C 421.7 498.5,421.2 494.8,406 493 C 402.4 492.6,396.4 491.1,392.6 489.6 C 384.4 486.5,382.2 486.4,374.8 489.3 M 361.1 506.4 C 360.5 507.1,360.3 508,360.7 508.3 C 361.7 509.4,372.8 509.1,373.5 508 C 374.8 505.9,362.8 504.4,361.1 506.4 M 376.5 506.4 C 374.7 507.7,374.7 507.8,376.8 508.9 C 381.5 511.4,385.8 509.4,381.8 506.6 C 379.1 504.7,378.9 504.7,376.5 506.4 M 346.5 507 C 345.7 508.2,348.5 509.4,350 508.5 C 350.6 508.2,350.8 507.4,350.5 506.9 C 349.7 505.7,347.3 505.7,346.5 507 M 446.5 520 C 445.7 521.2,448.5 522.4,450 521.5 C 450.6 521.2,450.8 520.4,450.5 519.9 C 449.7 518.7,447.3 518.7,446.5 520 M 377.5 577 C 376.3 578.9,378.1 579.8,385.8 580.9 C 390.5 581.5,394.5 582.7,396.8 584.2 C 398.9 585.6,403 587.3,406 588.2 C 411.7 589.9,429.1 592.5,432.5 592.2 C 438.9 591.8,451.4 589.9,457 588.6 C 460.6 587.7,465.4 587,467.6 587 C 471.9 587,474.6 585.1,473.7 582.7 C 472.3 579.1,436.6 575.5,413 576.5 C 389.8 577.5,384 577.5,380.9 576.6 C 379.2 576.1,378 576.3,377.5 577"/><path fill="#564a46" fill-rule="evenodd" d="M 309.5 63.4 C 308.9 63.6,306.5 64.3,304 65.1 C 294.4 67.9,282 79.6,282 85.9 C 282 87,281.6 88.2,281 88.5 C 279.6 89.3,279.7 107.2,281.1 110.7 C 283.5 116.7,284.6 118.7,289.2 125.7 C 291.9 129.6,294 133.2,294 133.6 C 294 134,286.6 141.6,277.5 150.5 C 268.4 159.4,261 167.3,261 167.9 C 261 168.6,259.4 171,257.5 173.3 C 255.6 175.5,254 177.8,254 178.3 C 254 178.8,252.2 181.3,250 183.8 C 245.5 188.8,245.4 190.7,249.4 190.2 C 251.9 189.9,252.1 190.2,251.5 192.2 C 250.1 197.1,244.2 208.6,241.5 211.8 L 238.7 215.2 237.6 211.8 C 237 210,236.1 208.6,235.5 208.8 C 234.5 209.1,233.9 210.1,230.3 217.5 C 229.2 219.7,227.2 223.7,225.7 226.3 C 224.2 228.9,223 231.7,223 232.4 C 223 233.2,222.4 234,221.7 234.3 C 220.3 234.8,211.9 251.4,206.9 263.5 C 205.8 266.2,203 274.8,201.9 278.5 C 201.5 280.1,200.6 283.3,200 285.5 C 196.5 297.5,195 322.8,197 334.5 C 200.3 353.6,208 368.3,224.6 387.7 C 232.4 396.7,232.8 397.9,229.6 402.7 C 224.8 410.1,222.4 421.4,226.4 418.1 C 227.2 417.4,228.4 415.5,229 413.7 C 229.7 411.9,231.4 408.1,232.7 405.2 C 235.8 398,235.7 396.6,230.7 391.2 C 222 381.6,217.8 375.8,213.5 367.7 C 196.3 335.4,197.3 300.7,216.7 257.6 C 221.9 246,228 234.7,228.7 235.4 C 229.4 236.1,227.1 242.9,223.9 249.5 C 222.3 252.8,221 256.2,221 257 C 221 259.5,217.3 273.2,215.5 277.4 C 214.2 280.6,213.9 284.1,214.1 296.4 C 214.2 304.7,214 312.2,213.7 313 C 213.3 313.8,213.9 315.6,215 317 L 216.9 319.5 219.8 317.3 C 222 315.7,223 315.4,223.9 316.3 C 225.2 317.6,225.3 320.9,224.1 322.9 C 223.4 324,223.7 326.1,225.6 332.9 C 226 334,226.4 333.9,227.9 332.6 C 229.7 330.9,229.9 330.9,230.9 332.9 C 232.6 336,232.2 338.8,229.9 340 C 228 341.1,227.9 341.3,229.5 343 C 230.4 344,233.1 345.5,235.6 346.5 C 239 347.8,240.5 349.1,242.1 352.2 C 243.2 354.4,245.4 356.9,246.9 357.8 C 248.5 358.7,251.7 362.2,254 365.7 L 258.3 372.1 261.1 369.4 C 263.4 367.2,264 365.7,264.1 362.1 C 264.2 359.6,264.5 356.4,264.9 355.1 L 265.6 352.7 267.3 355.3 C 269.4 358.5,271.1 358.7,273.5 356 C 275 354.4,275.2 353,274.6 348.5 C 274.1 344.1,274.3 343,275.4 343 C 276.2 343,277 344,277.2 345.2 C 277.6 348.6,281.5 348.8,283.5 345.6 C 284.8 343.7,285 342,284.5 338.9 C 283.8 335.1,283.9 334.9,286.1 335.2 C 287.6 335.4,288.6 336.4,289 338 C 289.4 339.7,290.4 340.6,292 340.8 C 293.4 341,295.4 342,296.5 343 C 298.5 344.9,298.6 344.8,302.8 342 C 305.3 340.3,309.1 338.8,311.8 338.5 C 320.9 337.4,335.8 328.5,338.5 322.6 C 339.3 320.9,341.5 317.2,343.3 314.3 C 345.5 310.9,347.2 306.3,348.3 300.8 C 349.3 296.2,350.5 290.9,351 289 C 353 280.9,352.4 258.8,349.9 253.5 C 347.8 248.9,344.1 230.4,344 224.3 C 344 221.2,343.5 219.7,341.9 218.6 C 340 217.3,339.8 216.4,340.1 209.8 C 340.5 202.6,340.5 202.5,337.9 202.2 C 335.3 201.9,335.3 201.8,335.2 192.3 C 335.1 184.8,334.8 182.4,333.4 180.9 C 331.7 179,331.7 178.7,333.9 174.2 L 336.2 169.5 334.1 168.1 C 332.9 167.4,332 166.1,332 165.3 C 332 164.4,330.3 162.2,328.3 160.4 C 325 157.4,324.7 156.7,325.8 155 C 327.7 151.9,327.3 151.2,322.3 148.8 C 318.5 147,317.4 145.8,316.7 143.2 C 315.8 139.5,312.8 137.8,305.3 136.5 C 302.2 136,300.9 135.3,300.4 133.7 C 300 132.5,297.8 128.9,295.4 125.7 C 290 118.5,285.6 109.5,286.4 107.4 C 286.9 106.2,287.7 105.9,289.8 106.5 C 291.3 106.9,294.8 107.4,297.6 107.7 C 302.4 108.1,303 107.9,307.6 104.1 C 318.4 95.2,323 88,323 80.1 C 323 78.9,324.2 76.3,325.7 74.4 C 328.2 71.4,328.9 71.1,332 71.6 C 336.7 72.5,340.4 74.4,345 78.6 C 347.5 80.9,349.1 81.7,349.5 80.9 C 350.7 79,337.1 66.7,332.2 65.2 C 328 64,311.5 62.7,309.5 63.4 M 348.5 144.9 C 348.2 145.4,351 148.5,354.7 151.7 C 364.5 160.2,378 173.2,378 174.2 C 378 176.2,375.4 174.6,370.2 169.2 C 364.3 163.1,345.9 151.3,344.1 152.4 C 341.5 154.1,349.7 170.3,357.2 178.3 C 359.3 180.5,361 183.2,361 184.2 C 361 185.3,362.1 188.5,363.4 191.3 C 368.8 203,373 212.8,373 213.6 C 373 214.1,374.1 216.2,375.5 218.2 C 376.9 220.2,378 222.8,378 223.9 C 378 225,379.1 227.1,380.4 228.7 C 381.9 230.5,383.3 234.1,384.1 238 C 384.7 241.6,386 245.8,386.9 247.5 C 387.7 249.2,388.8 254.3,389.2 259 C 389.8 266.5,392.7 295,393.2 299 C 393.5 301.2,391.9 310.3,390.9 311.5 C 390.5 312.1,390.1 313.9,390.2 315.5 C 390.2 317.2,389.5 321.4,388.5 325 C 387.6 328.6,386.7 333.9,386.6 336.8 C 386.4 340.7,385.7 342.7,384 344.5 C 381.6 347,381.6 347.1,383.4 350.1 C 384.9 352.7,385 353.6,383.9 356.2 C 382.8 359,382.9 359.4,385.1 361.1 C 386.6 362.3,388.2 362.8,389.5 362.4 C 390.6 362,393.2 361.8,395.3 361.8 C 398.8 362,399.8 361.3,405 356.2 C 412 349.2,414.7 344.5,412.9 342.4 C 411.9 341.1,411.5 341.1,410 342.5 C 408.2 344.1,406 344.5,406 343.2 C 406 342.7,407.2 341.3,408.6 339.9 C 412.9 336,415.1 329.7,414.4 323.5 C 413.9 319.2,414.2 317.5,415.8 314.4 C 419.8 306.9,419 278.7,414.6 270.1 C 412.6 266.3,412.6 261.6,414.5 260 C 416.6 258.2,416.4 256.7,413.6 254.1 C 411.7 252.3,410.5 251.9,408.4 252.4 C 405.2 253.2,404 251.9,404 247.2 C 404 245.2,403.2 243.3,401.8 242 C 400.5 240.8,398.7 239.2,397.8 238.3 C 396.8 237.4,396 235.8,396 234.7 C 396 233.6,395.1 232.6,394 232.3 C 392.2 231.8,389 226.4,389 223.9 C 389 223.4,390.3 223.3,391.9 223.6 C 393.5 223.9,395.1 223.7,395.4 223.2 C 396.2 221.8,392.3 219.7,390.4 220.4 C 389.6 220.7,388.1 220.1,387 219 C 384.8 216.8,384.6 216.1,385.9 214.1 C 386.7 212.9,387.1 212.9,388.4 213.9 C 389.3 214.6,390.7 214.9,391.6 214.6 C 394.9 213.3,390.8 203,387 203 C 385.2 203,385 202.5,385.6 198.8 C 386.2 195.1,386 194.4,383.6 192.5 L 380.9 190.3 384.5 187.6 L 388.1 184.8 390.4 186.9 C 394.5 190.7,394 187.8,389.8 182.6 C 376.7 166.6,350.1 142.4,348.5 144.9 M 298.7 158 C 296.8 160.3,294.5 164.6,293.5 168 L 291.7 174 294.4 180.4 C 295.9 183.9,298 187.6,299.1 188.6 C 300.1 189.5,301 191.3,301 192.5 C 301 195.4,303.4 198.7,304.4 197.1 C 305 196.2,305.5 196.2,306.6 197.1 C 307.9 198.1,307.8 198.5,306.5 200 C 305.2 201.4,305.1 202.2,306.1 204.4 C 307.1 206.6,307 208.7,305.2 216.3 C 299.2 242.2,297.4 252.2,294.5 275.5 C 293.6 282.1,292.5 290,292 293 C 290.9 299.4,293.3 313.1,296.9 321.2 C 299.4 326.7,300.3 327.4,303.4 326.6 C 306 326,306.9 322.9,307.4 313.5 C 307.6 310.8,308 307,308.4 305.2 C 309 302.8,308.8 302,307.9 302.2 C 304.1 303.1,304.9 282.6,309.6 258.9 C 311.8 247.8,312.1 244,311.6 236.8 C 310.5 222.5,312.8 224.3,318.6 242.3 C 320 246.8,321.8 252,322.6 253.8 C 323.4 255.6,324 258.1,324 259.4 C 324 260.7,325.1 263.8,326.4 266.3 C 327.8 268.8,328.6 271.7,328.3 272.8 C 328 274,328.7 276.1,330.1 278 C 331.9 280.4,332.2 281.5,331.4 282.8 C 330.2 284.7,330.7 287.3,332.1 286.4 C 332.6 286.1,333 285,333 283.9 C 333 282.7,334 281.6,335.5 281 C 339 279.7,339.6 277.3,337.3 274.1 C 335.7 272,335.4 270.4,335.7 266.4 C 336.1 262.6,335.8 260.6,334.5 258.6 C 332.8 256,332.8 255.8,334.8 253.7 C 336.5 251.9,336.7 251.2,335.7 249.5 C 335.1 248.4,334.5 245.5,334.4 243 C 334.1 236.1,332 225.7,330.4 223.9 C 329.6 223,329 220.2,329 217.2 C 329 214.4,328.6 211.9,328.1 211.6 C 327.6 211.3,326.5 207.5,325.6 203.3 C 322.7 189.7,322.3 188.4,313.4 168.9 C 311 163.6,309 158.8,309 158.3 C 309 156.8,305.6 154,303.7 154 C 302.9 154,300.6 155.8,298.7 158 M 347.5 184.9 C 346.8 186.1,348.7 187.3,350 186.5 C 351.1 185.8,350.4 184,349 184 C 348.5 184,347.9 184.4,347.5 184.9 M 402.4 231.4 C 401.6 233.6,402.7 236.3,404.3 235.8 C 404.9 235.5,405.5 234.3,405.5 233 C 405.5 230.3,403.3 229.1,402.4 231.4 M 326.3 299 C 325.7 300.6,325.6 302,326.1 302 C 327 302,329 298.7,329 297.1 C 329 294.9,327.4 296.1,326.3 299 M 229.7 306.7 C 229.3 307,229 308.8,229 310.7 C 229 314.7,231.6 315.3,232.6 311.5 C 233.6 307.6,231.8 304.6,229.7 306.7 M 267.5 401.6 C 265.3 402.5,261.5 404,259 405 C 256.5 406,250.7 407.2,246.1 407.6 C 239.8 408.1,237.2 408.8,235.8 410.2 C 232.2 413.8,236.2 415.3,253 416.5 C 254.4 416.6,260 417.3,265.5 418 C 273.1 419,277.3 419,283 418.2 C 287.1 417.6,293.6 416.8,297.5 416.5 C 331.1 413.7,339.8 409.1,316.1 406.9 C 310.8 406.4,300.2 404.7,292.7 403 C 277.3 399.6,273.3 399.4,267.5 401.6 M 365.2 407.5 C 358.3 410.5,362.6 414.9,373.2 415.7 C 380 416.2,380.8 416.1,383.5 413.8 C 386.8 410.9,386.4 408.5,382.5 407 C 378.7 405.6,369 405.8,365.2 407.5 M 228.7 425.7 C 228.3 426,230.3 428.7,233 431.7 C 237.4 436.5,238 437.7,238 441.4 C 238 451,232.9 458.7,224.3 462.1 C 220.8 463.4,214.4 469.7,212.4 473.8 C 211.4 475.8,210.3 479.8,209.9 482.5 C 209.5 485.2,208.8 489.6,208.4 492.3 C 207.6 497.9,203.9 502.1,197.7 504.2 C 189.2 507.2,186.3 508,184.2 508 C 183.1 508,181.1 508.4,179.8 508.9 C 178.5 509.4,175.5 510.3,173 511 C 158.8 514.9,153.5 516.7,148.8 519.1 C 147.8 519.6,146.5 520,146 520 C 144.1 520,133.4 527.7,131.7 530.3 C 125.5 539.8,124.1 559.1,129 569 C 131.3 573.7,131.2 577.1,128.5 582.2 C 125.5 587.8,124.8 596.8,127 599.5 C 128.7 601.6,129.5 600.6,129.2 596.5 C 128.9 594.1,129.5 592.6,131.1 591.1 C 134.7 587.8,143.2 585.9,144.5 588 C 144.9 588.6,146.6 588.8,148.3 588.5 C 150.1 588.3,153.6 587.8,156.3 587.5 C 158.9 587.3,162 586.4,163.3 585.6 C 165 584.5,166.7 584.4,171.5 585.2 C 174.8 585.7,184.5 586.3,193.1 586.5 C 204.8 586.7,209.4 587.1,211.7 588.3 C 216.9 591,267.1 590.8,270.4 588.1 C 271.4 587.3,274 586.5,276.3 586.4 C 278.6 586.2,285 585.2,290.5 584.1 C 296 582.9,301.7 582,303.1 582 C 304.5 582,306 581.7,306.4 581.3 C 306.8 580.8,309.5 580,312.3 579.3 C 316.6 578.4,317.9 578.4,319.7 579.6 C 321.4 580.6,322.6 580.7,324.7 580 C 326.2 579.4,328.1 578.7,328.9 578.4 C 332.6 577.1,327.2 575.5,316.7 574.9 C 310.6 574.5,299.4 573.7,292 573.2 C 245.4 569.5,227 569.1,211.1 571.5 C 205.8 572.3,194.5 573.4,186 574 C 177.5 574.6,164.3 576,156.7 577.1 C 140.4 579.4,138.7 579,135.3 572 C 132.3 566.1,130.9 555.6,132.4 551 C 134.1 545.7,145 539.1,145 543.3 C 145 545.1,148.2 548,150.1 548 C 150.9 548,152.2 547.4,152.8 546.8 C 154.8 544.8,167 545.7,169.5 548 C 170.9 549.2,172.5 549.6,174.8 549.3 C 177.1 548.9,178.5 549.2,179.3 550.4 C 180.2 551.6,182.7 552.2,188 552.6 C 192.1 552.8,201.8 553.6,209.5 554.2 C 233.9 556,250.1 555.8,260 553.4 C 268.6 551.3,281.8 549,285 549 C 286.6 549,289.1 548.5,290.7 547.9 C 292.2 547.3,296 546.6,299 546.4 C 302 546.2,309.2 545.4,315 544.6 C 320.8 543.8,327.8 543.1,330.7 543 C 333.5 543,336.2 542.5,336.5 542 C 336.8 541.5,337.9 541,338.9 541 C 339.9 541,341.3 540.3,342 539.5 C 342.7 538.7,344.8 538,346.6 538 C 349.4 538,350.2 537.5,351 535.5 C 351.7 533.6,352.7 533,355 533 C 358.2 533,358.7 533.9,356.8 535.8 C 355.9 536.7,355.9 537.3,356.7 538.1 C 358.5 539.9,361 538.4,361 535.7 C 361 532.6,363 530.8,365 532 C 365.8 532.6,368.5 532.7,371 532.4 C 375.1 531.9,375.8 532.2,379.1 535.2 C 381.1 537,383.2 539.4,383.8 540.5 C 384.5 542,386.6 542.9,390.9 543.8 C 396.9 545.1,397.7 545.5,400.5 549.5 C 401.7 551.2,402.2 551.3,403.9 550.3 C 405.4 549.4,407.8 549.3,413.2 550 C 425.2 551.6,440.7 551.3,443.5 549.4 C 445.5 548.1,446.4 548,449.3 549.1 C 452.3 550.2,453.1 550,457.2 547.6 C 459.7 546.2,462.2 543.9,462.8 542.5 C 463.8 540.4,463.6 539.8,461.4 538.1 C 460 537,457.9 535.8,456.7 535.5 C 455.5 535.1,453.1 534.2,451.4 533.4 C 449.7 532.7,445.2 531.6,441.4 531 C 437.6 530.5,432.7 529.5,430.5 528.9 C 428.3 528.3,425.2 527.8,423.7 527.9 C 422.1 527.9,419.7 527.2,418.4 526.4 C 416.5 525.1,415.4 525,413 525.8 C 409.7 527,408.5 526.1,409.5 522.9 C 410.8 519,408.7 518.2,397.7 518.6 C 388.4 519,347.7 518,312.7 516.5 C 298.8 515.9,284.1 514.4,283.2 513.5 C 281.7 512,285.6 511.5,299 511.4 C 311.9 511.3,328.7 509.8,332.9 508.4 C 333.9 508.1,334 507.6,333.2 506.8 C 332.6 506.2,324.4 505.6,310.8 505.4 C 288.4 505,280.6 504.4,281.5 503.1 C 281.7 502.6,284 501.9,286.4 501.6 C 288.9 501.2,291.9 500.1,293.1 499.1 C 295.2 497.4,295.2 497.2,293.6 494.8 C 292.7 493.4,290.8 491.8,289.4 491.1 C 286.1 489.6,280 485,280 484 C 280 480.9,303.5 477.4,318.5 478.3 C 325.4 478.7,327.9 478.4,329.7 477.3 C 331.3 476.2,333 476,335.2 476.5 C 338.6 477.2,341.1 477.3,358.7 476.8 C 369.2 476.6,370.6 476.9,382.7 482.8 C 385.7 484.3,386.1 484.3,387.8 482.6 C 388.9 481.7,392.9 479.8,396.6 478.5 C 400.4 477.2,403.6 475.6,403.8 475 C 404 474.4,402 473,399.4 471.9 C 395 469.9,393.7 469.8,377.5 470.5 C 366.5 470.9,358.3 470.8,354.9 470.1 C 349.3 469,340.1 467.9,321.5 466 C 308.9 464.7,299.9 463.3,299.1 462.4 C 298.8 462.1,299.7 460.9,301.2 459.9 L 304 457.9 301.9 455 C 299.4 451.7,299.9 450.4,304.1 449.5 C 309.1 448.4,310.7 441.8,306.3 440.4 C 305.3 440.1,303.8 439.4,303 438.9 C 294 433.5,269 431.9,255.3 435.9 C 253.5 436.4,249.6 436.5,246.6 436.1 C 241.9 435.5,240.2 434.6,235.2 430.2 C 231.9 427.4,229 425.4,228.7 425.7 M 373.9 433.7 C 369.5 434.4,368.3 436.8,367.5 446.2 L 366.8 455 369.6 456.1 C 377.2 459,384 458,382.4 454.1 C 382.1 453.2,381.6 448.7,381.3 444 C 380.8 435.7,379.9 432.9,377.6 433.1 C 377 433.2,375.3 433.5,373.9 433.7 M 244 440.5 C 244 441.6,244.7 442,246.2 441.8 C 247.5 441.6,248.5 441.1,248.5 440.5 C 248.5 439.9,247.5 439.4,246.2 439.2 C 244.7 439,244 439.4,244 440.5 M 401.6 459.9 C 400.7 461.4,403.9 463.5,405.1 462.2 C 405.9 461.5,405.6 460.9,404.2 460.1 C 403 459.5,401.9 459.4,401.6 459.9 M 239 462.7 C 234.8 464.2,234.7 464.3,237 465.2 C 241.7 467,256.2 464,253 462 C 250.8 460.6,244.1 460.9,239 462.7 M 217.1 476.4 C 215.6 478,214.7 480.5,214.3 484.4 L 213.7 490 217.1 490 C 219 490,225 489.3,230.4 488.5 C 235.9 487.7,241.7 487,243.4 487 C 245.1 486.9,247.8 486.3,249.5 485.6 L 252.5 484.4 249.9 482.7 C 246.8 480.6,231.6 476.1,227.8 476 C 226.3 476,224.8 475.6,224.5 475 C 223.4 473.2,219.4 473.9,217.1 476.4 M 375 490.2 C 368.6 493.4,368.7 495.3,375.3 498.4 C 382.1 501.7,387.9 501.7,394.6 498.6 C 397.8 497.1,400.2 496.5,401.2 497.1 C 403.2 498.2,410.3 498.5,411.9 497.5 C 414.3 496.1,410.1 494,404.9 494 C 401.7 494,398.1 493,393.8 491 C 386.2 487.4,381.1 487.2,375 490.2 M 423.5 498 C 422.5 499.7,425.9 503,431 505.2 C 433.5 506.3,443.4 509.2,453 511.6 C 473.7 516.9,493.4 522.7,497.2 524.6 C 498.7 525.4,500.1 525.6,500.4 525.1 C 501.1 524,499.7 523,493.5 520.1 C 490.8 518.8,487.7 517.4,486.8 516.9 C 485.8 516.4,484.3 516,483.5 516 C 482.7 516,481.2 515.6,480.2 515.1 C 479.3 514.6,476.5 513.6,474 513 C 471.5 512.3,468.6 511.4,467.5 511 C 466.4 510.6,463.5 509.7,461 509 C 458.5 508.3,455.5 507.4,454.2 506.9 C 452.9 506.4,450.6 506,449 506 C 446.2 506,443 505.4,432.5 502.8 C 430.3 502.3,427.5 500.7,426.4 499.3 C 424.9 497.6,424 497.2,423.5 498 M 223.8 503.7 C 218.6 504.1,217.5 505.6,221.6 506.6 C 224.3 507.3,238.8 506.4,242.7 505.4 C 249.7 503.5,238.9 502.5,223.8 503.7 M 406.7 577.5 C 397.6 578.8,395.9 579.9,398.8 582.8 C 401.3 585.3,411.1 589,415.4 589 C 417.2 589,421.2 589.5,424.4 590.1 C 433.8 591.8,463.8 587.6,467.4 584 C 469.5 581.9,465.9 580.2,457.7 579.6 C 453.2 579.2,446.8 578.5,443.5 578 C 433.8 576.5,415.1 576.3,406.7 577.5"/><path fill="#716460" fill-rule="evenodd" d="M 309.5 63.4 C 308.9 63.6,306.5 64.3,304 65.1 C 294.4 67.9,282 79.6,282 85.9 C 282 87,281.6 88.2,281 88.5 C 279.6 89.3,279.7 107.2,281.1 110.7 C 283.5 116.7,284.6 118.7,289.2 125.7 C 291.9 129.6,294 133.2,294 133.6 C 294 134,286.6 141.6,277.5 150.5 C 268.4 159.4,261 167.3,261 167.9 C 261 168.6,259.4 171,257.5 173.3 C 255.6 175.5,254 177.8,254 178.4 C 254 178.9,252.8 180.6,251.3 182.2 C 249.1 184.5,248.9 185,250.3 185.5 C 251.1 185.9,252.7 185.7,253.9 185.1 C 256.7 183.6,256.7 183.5,256.6 188.2 C 256.5 191.4,256.9 192.5,258 192.5 C 259.2 192.5,259.4 193.6,259.3 197.3 C 259 202.8,255.2 208.6,249.1 213.2 C 244.4 216.6,243.5 218.5,245.4 221.2 C 246.7 223,246.6 223.7,245 226.9 C 244 228.9,241.5 234.8,239.5 240 C 234.2 253.8,233.1 255.7,229.6 256.7 C 225.5 257.8,223 263,222.5 271.2 C 222.3 274.7,222 278.1,221.8 278.9 C 221.6 279.9,222.7 280.6,225.3 281 C 227.4 281.4,229.5 282.1,230.1 282.7 C 232 284.6,235 294.6,235 299 C 235 301.5,235.5 305.2,236.1 307.3 C 236.9 310.1,236.8 311.5,235.9 312.6 C 235.3 313.3,235 315.2,235.3 316.7 C 235.6 318.4,235.1 320.3,233.8 322.1 C 231 325.8,232 328.4,235.9 327.7 C 239.5 327,241.5 329,242.3 334.3 C 242.7 336.9,244.4 339.9,247.5 343.6 C 255 352.4,257.7 352.9,259.9 346.2 C 261 343.1,262.2 341.8,265.5 340.1 C 267.8 339,270.4 338,271.2 338 C 273.4 338,274.7 336.1,275.5 331.8 C 275.9 329.8,277.3 327.1,278.6 325.9 C 280 324.6,280.8 322.9,280.5 322.1 C 280.2 321.1,280.9 320.1,282.3 319.5 C 284.1 318.7,284.6 317.6,284.8 313 C 285.2 306.8,286.2 305.1,288.4 307 C 290.7 308.8,291.5 306,290 301.6 C 288.9 298,289.6 291.5,292.1 283.5 C 292.6 281.9,293.2 276.9,293.5 272.6 C 293.8 268.2,294.4 263,294.9 261.1 C 295.4 259.1,296.1 254.6,296.5 251 C 297.1 244.9,300 230.6,303.7 216.3 C 305.6 208.8,305.2 206.3,300.5 198 C 298.5 194.5,296 188.9,294.9 185.6 C 293.8 182.3,292.1 178.2,291.3 176.6 C 289.9 173.9,289.9 172.7,290.9 167.5 C 292.1 162.1,299.2 148,300.9 148 C 303.1 148,310.2 157.5,313.4 164.6 C 315.4 169.1,317 173.1,317 173.5 C 317 174,318.4 177.3,320 180.9 C 322.9 187.3,328.5 206.9,329.9 216 C 330.3 218.5,331.1 221.4,331.8 222.6 C 332.4 223.7,333.2 227.1,333.6 230.1 C 334 233.1,334.7 236.4,335.3 237.5 C 336.6 239.9,338.8 255.1,339.9 269 C 341 281.9,339.2 294.3,334.9 304.2 C 333.3 307.8,332 311.1,332 311.4 C 332 313.1,325.4 321.2,322.3 323.2 C 320.3 324.4,316.8 326.7,314.6 328.1 C 311.6 329.9,310.5 331.3,310.5 333.1 C 310.5 338.6,322.5 335.8,331 328.3 C 336 323.8,344.3 309.3,346.7 300.7 C 349 292.2,349.6 267.2,347.6 260.8 C 346.7 257.9,344.9 249.2,343.7 241.5 C 342.4 233.8,340.6 226.1,339.7 224.4 C 338.8 222.7,337.8 218.9,337.5 215.9 C 337.1 212.9,336 208.5,335 206 C 334.1 203.5,333 198.5,332.6 194.8 C 332.2 191.1,331.1 186.2,330 183.8 C 328.9 181.4,328 177.8,328 175.8 C 328 173.8,327.6 171.9,327.1 171.6 C 326.7 171.3,325.7 169.1,325 166.7 C 324.4 164.2,322.1 158.7,319.9 154.4 C 317.8 150.1,316 145.8,316 144.8 C 316 143.7,314.8 141.7,313.4 140.3 C 311 138,310.3 137.8,304.8 138.3 C 299.2 138.8,298.8 138.7,299.3 136.8 C 300.1 134,298.8 131.2,294.5 126 C 292.4 123.5,289.4 118.7,287.7 115.2 C 285 109.5,284.8 108.1,285.3 101.7 C 285.9 92.9,289.2 83.9,293.7 79.2 C 298.3 74.3,298.9 75.8,294.6 81.5 C 291.5 85.5,291 86.9,291 91.5 C 291 94.5,290.6 98,290.1 99.3 C 288.5 103.4,291.1 106,296.8 106 C 302.9 106,311.6 100.1,315.5 93.3 C 317.9 89.2,318.2 88,317.7 82.6 C 317.2 77.3,317.4 76.2,319.2 74.3 C 321 72.3,321.1 71.8,319.9 70.4 C 318.6 68.8,319 68.7,325.1 69.2 C 332 69.8,340.1 72.8,343.6 76.1 C 344.9 77.3,346 77.7,346.4 77.2 C 347.4 75.6,336.7 66.6,332.1 65.2 C 328.1 64,311.5 62.7,309.5 63.4 M 353.6 148.8 C 353.3 149.3,353.9 150.5,354.9 151.4 C 356 152.4,357.1 152.7,357.4 152.2 C 357.7 151.7,357.1 150.5,356.1 149.6 C 355 148.6,353.9 148.3,353.6 148.8 M 358.7 152.8 C 358.4 153.2,360.3 155.5,363 157.8 C 368.4 162.5,370.8 162.1,365.7 157.4 C 360.9 152.9,359.2 151.8,358.7 152.8 M 233.6 210.9 C 232.7 211.8,232 213.2,232 213.8 C 232 214.4,231.2 216.4,230.2 218.2 C 229.2 220,227.1 223.7,225.7 226.3 C 224.2 228.9,223 231.7,223 232.4 C 223 233.2,222.4 234,221.7 234.3 C 220.3 234.8,211.9 251.4,206.9 263.5 C 205.8 266.3,202.9 274.9,201.9 278.8 C 201.4 280.5,200.5 283.7,199.9 285.8 C 196.5 297.4,195 322.9,197 334.5 C 198.9 345.3,202.8 355.9,208.8 366.8 C 212.9 374.1,213 370.4,208.9 360.4 C 203.8 347.9,202.2 341.5,201.1 328.9 C 198.8 301.8,207.6 268.7,225.5 237 C 235.7 218.9,237 216.4,237 213.3 C 237 209.4,235.8 208.5,233.6 210.9 M 315.6 248.9 C 314.6 250,313.2 254.2,312.5 258.3 C 311.8 262.3,310.5 267.1,309.6 268.8 C 306 275.7,311.1 289.6,316.1 286.9 C 319.9 284.9,322.1 266.6,320 255.3 C 318.4 247.1,317.9 246.4,315.6 248.9 M 394.6 259.5 C 393 263.3,392.9 285.4,394.5 294.6 C 395.3 299.4,393.6 314.5,391.4 320.9 C 390.4 323.8,390.2 326.8,390.6 329.7 C 391 332.5,390.8 334.5,390 335.5 C 389.3 336.3,389.1 337.8,389.6 339.2 C 390 340.5,390.4 342.4,390.4 343.5 C 390.5 345.1,391.1 345.5,393.6 345.4 C 398.6 345.2,404.4 340.7,408 334.5 C 410.8 329.6,411.1 328.3,410.5 324.4 C 410 320.6,410.3 319.1,412.9 314.4 C 415.9 308.9,415.9 308.5,415.5 297.6 C 415.2 291.5,414.5 284.2,413.8 281.5 C 412.1 273.6,406.4 263.2,402.7 261 C 400.9 260,398.7 258.4,397.8 257.5 C 396.2 255.9,396 256,394.6 259.5 M 290.4 313.4 C 289.5 315.6,291.1 320.5,292.5 319.9 C 293.8 319.4,293.5 314.1,292.1 312.7 C 291.4 312,290.9 312.2,290.4 313.4 M 295.5 332 C 295.1 332.6,295.2 333.6,295.8 334.2 C 296.4 334.8,297 334.8,297.5 334 C 297.9 333.4,297.8 332.4,297.2 331.8 C 296.6 331.2,296 331.2,295.5 332 M 401.5 352.9 C 400.8 354.1,402.7 355.3,404 354.5 C 405.1 353.8,404.4 352,403 352 C 402.5 352,401.9 352.4,401.5 352.9 M 229.6 402.6 C 226.5 407.4,223.7 415.7,224.4 417.7 C 225.1 419.5,227 418.4,227 416.2 C 227 415.3,228.6 411.4,230.6 407.6 C 234.6 399.7,233.9 396.1,229.6 402.6 M 267 402.9 C 264 404,259.8 405.7,257.6 406.9 C 255.5 408,251.8 409.2,249.4 409.6 C 240.4 410.9,241.7 414.4,251.5 415.3 C 254.8 415.6,260.6 416.4,264.4 417 C 271.9 418.3,277.6 418.1,297.5 415.5 C 304.6 414.6,313 413.5,316 413.1 C 322.8 412.3,324.5 411.4,322.9 409.4 C 322.2 408.5,319.8 408,316.4 408 C 313.5 408,303.9 406.4,295 404.5 C 276.7 400.5,274.6 400.4,267 402.9 M 368.4 407.1 C 364 408.4,362.7 410.2,364.4 412.5 C 365.5 414,367.4 414.5,372.8 414.8 C 380.5 415.3,384 414,384 410.9 C 384 407.1,375.5 405,368.4 407.1 M 235.6 432.8 C 235.3 433.3,235.7 434.6,236.5 435.6 C 238.4 438.1,238.4 444.6,236.4 450.4 C 234.8 455.1,229.8 459.9,224.3 462.1 C 220.8 463.4,214.4 469.7,212.4 473.8 C 211.4 475.8,210.3 479.8,209.9 482.5 C 209.5 485.2,208.8 489.6,208.4 492.3 C 207.6 497.9,203.9 502.1,197.7 504.2 C 189.2 507.2,186.3 508,184.2 508 C 183.1 508,181.1 508.4,179.8 508.9 C 178.5 509.4,175.5 510.3,173 511 C 158.8 514.9,153.5 516.7,148.8 519.1 C 147.8 519.6,146.5 520,146 520 C 144.1 520,133.4 527.7,131.7 530.3 C 125.5 539.8,124.1 559.1,129 569 C 131.2 573.6,131.1 577.1,128.7 581.8 C 126.1 586.9,124.6 593.6,126 594.5 C 126.4 594.8,128 593.4,129.5 591.4 C 131 589.5,134.5 586.9,137.3 585.5 C 142 583.4,142.7 583.3,144.2 584.7 C 146.7 586.9,159.4 586.8,161.9 584.6 C 164.1 582.6,170.1 582.5,176.4 584.4 C 179.9 585.5,183.2 585.6,189.7 585 C 194.5 584.6,199.5 584.6,200.9 585.1 C 206.1 586.9,236.3 587.6,249.2 586.3 C 256 585.6,266.2 584.7,272 584.4 C 278.8 584,284.1 583.2,287 582 C 289.5 581,294.6 579.6,298.3 579 C 304.8 577.8,307 576.7,305.2 575.6 C 304.2 575,286.2 573.2,274.5 572.5 C 270.1 572.2,261.6 571.7,255.5 571.3 C 238.5 570.3,222.4 570.7,210.4 572.4 C 204.4 573.3,193 574.5,185.1 575 C 167.4 576.2,164.9 576.6,153.2 579.2 C 141.4 581.9,138.8 581,134.8 572.8 C 129.3 561.7,129.4 547.9,135 541 C 136.1 539.6,138.1 536.9,139.5 534.8 C 142.5 530.3,142.6 530.2,149.7 528.4 C 156.9 526.5,159.1 527.1,156.3 530.3 C 155.2 531.5,153.7 533.5,153.1 534.8 C 151.8 537.2,152.5 539.4,154.1 538.4 C 155.3 537.7,159 530.4,158.5 529.8 C 157.8 529.1,165.4 523.2,168.4 522.1 C 169.7 521.5,173.6 520.8,176.9 520.4 C 182.6 519.8,183 519.9,183 521.8 C 183 523.1,180.9 525.7,177.5 528.6 C 174.5 531.2,171.8 534.2,171.4 535.2 C 171.1 536.2,169.9 537.9,168.8 539 C 167.7 540,167 541.5,167.3 542.4 C 167.9 543.9,175.3 545.8,183.4 546.4 C 186.5 546.7,188.6 547.4,189.2 548.4 C 189.8 549.4,191.4 549.9,194.3 549.9 C 196.6 549.8,205 550.5,213 551.4 C 235.7 553.8,241.2 553.6,266.5 549.1 C 269.2 548.6,275.8 547.5,281 546.6 C 286.2 545.7,291.6 544.5,293 543.9 C 294.3 543.3,299.9 542.6,305.5 542.4 C 311.6 542.1,316.3 541.3,317.7 540.5 C 319.3 539.4,321.6 539.2,326.4 539.7 C 332.2 540.2,333 540.1,333.7 538.4 C 334 537.4,335.5 535,336.8 533.2 C 339.1 530.1,339.5 530,346.4 530 C 355.5 530,368.8 527.8,372 525.8 C 373.4 525,376.3 524.2,378.4 524.1 C 382.9 523.9,384.3 523.3,383.4 521.8 C 383.1 521.3,380.7 521,378.1 521.1 C 375.6 521.3,371.7 521.1,369.5 520.7 C 365.4 520.1,358.7 519.7,314.5 518 C 278.5 516.6,270.1 514.9,277.6 510.6 C 282 508.1,282.1 506.9,277.7 505.4 C 274.7 504.4,274.7 504.3,276.5 503.3 C 277.6 502.7,281.1 501.4,284.2 500.5 C 287.4 499.6,290.2 498.4,290.6 497.9 C 292.3 495.1,279.9 487,271.6 485.5 C 266.3 484.6,267.9 483.6,279 481.1 C 284.2 479.9,289.4 478.7,290.5 478.4 C 292.2 478,304.2 476.9,325 475.4 C 328 475.1,334.1 474.9,338.5 474.7 C 346.9 474.5,349.4 473.1,343.8 471.7 C 342 471.2,339.1 470.5,337.5 470 C 335.9 469.5,325.5 468.1,314.5 467 C 294.9 465,290 464,290 462.1 C 290 461.6,291 460.8,292.2 460.5 C 293.5 460.1,295.6 459.1,296.9 458.3 L 299.2 456.8 296.5 454 L 293.8 451.1 295.9 448.4 C 298.5 445,298.5 443.2,295.7 439.9 C 292.7 436.3,285.3 434.5,274.3 434.6 C 262.5 434.7,260 436.1,260.3 442.2 C 260.5 446,260.2 446.5,258.3 446.8 C 255.5 447.2,252.6 451,254 452.4 C 255.5 453.9,255.2 454.7,252.8 455.3 C 249.8 456.1,251.8 458.3,257 459.9 C 259.2 460.5,261 461.5,261 462.1 C 261 463.7,255.4 465.6,245.5 467.5 C 235.6 469.4,231.4 471.9,234 474.3 C 235.4 475.6,237.8 476.4,253.4 480.6 C 257.2 481.7,260.5 483,260.7 483.7 C 261.3 485.3,255.4 486.7,245.5 487.6 C 241.1 487.9,233.9 488.9,229.5 489.7 C 214.3 492.5,214.3 492.5,213.6 489.5 C 212.5 485.2,214.7 476.8,218 472.8 C 221.3 468.8,239.4 459,243.4 459 C 244.7 459,246.3 458.4,246.9 457.6 C 247.9 456.4,247.5 455.7,245.1 453.9 C 242.1 451.7,242 451.3,242 444.5 C 242 437.9,241.8 437.2,239.1 434.6 C 237.5 433.1,236 432.3,235.6 432.8 M 372.9 436.9 C 370.9 438.5,370.7 439.1,371.7 441.2 C 372.6 443.2,372.5 444,371.5 445.1 C 370.8 445.9,369.8 448.1,369.5 450.2 C 368.9 453.4,369.1 454,371.3 455.5 C 372.8 456.4,375.3 457,377.2 456.8 L 380.5 456.5 380.2 451.5 C 380 448.8,379.2 445.8,378.5 445 C 377.5 443.9,377.4 443,378.2 441.6 C 378.9 440.3,378.9 439.1,378.1 437.4 C 376.8 434.5,375.9 434.4,372.9 436.9 M 373.2 472.3 C 364.3 473.6,362.5 475.2,368.9 476.1 C 371 476.4,373.5 477.1,374.3 477.8 C 378.8 481.6,392.8 480.5,397.4 476 C 399.2 474.2,399.2 474.2,397.1 473 C 393.9 471.3,382.6 471,373.2 472.3 M 375.4 491.5 C 372.5 494.5,372.9 495.6,378.7 499.1 C 383 501.8,389.6 501,394 497.3 C 397.5 494.4,397.3 493.7,392 491 C 386.2 488,378.6 488.3,375.4 491.5 M 216 503.4 C 206.2 505.8,206.7 507.6,217.3 508.5 C 227.8 509.4,253 506.9,253 505 C 253 502.3,225.3 501,216 503.4 M 436.6 504.9 C 436.2 505.5,436.5 506.2,437.2 506.4 C 437.9 506.6,440.1 507.2,442 507.8 C 446 509,453.5 510.9,466.5 514 C 471.4 515.2,477.3 516.8,479.6 517.6 C 481.8 518.3,484.5 519.1,485.6 519.3 C 486.6 519.4,488.1 519.9,488.8 520.3 C 489.4 520.8,490.5 520.8,491 520.5 C 492.4 519.6,491.1 517.8,489.5 518.4 C 488.7 518.7,487.6 518.2,487 517.4 C 486.3 516.6,484.9 516,483.9 516 C 482.8 516,481.2 515.6,480.2 515.1 C 479.3 514.6,476.5 513.6,474 513 C 471.5 512.3,468.6 511.4,467.5 511 C 466.4 510.6,463.5 509.7,461 509 C 458.5 508.3,455.4 507.4,454 507 C 452.6 506.5,449.5 505.9,447 505.6 C 444.5 505.3,441.3 504.8,439.9 504.4 C 438.4 504.1,436.9 504.3,436.6 504.9 M 200.5 522 C 200.2 522.5,200.9 523.4,202.2 523.9 C 204.6 524.8,208.5 523.9,208.5 522.4 C 208.5 521.1,201.3 520.7,200.5 522 M 190.5 522.7 C 187.8 523.4,186.6 524.6,187.5 525.9 C 187.9 526.7,188.8 526.6,190.3 525.5 C 191.5 524.7,193.2 524,194.2 524 C 195.1 524,196.2 523.5,196.5 523 C 197.1 522,194.1 521.8,190.5 522.7 M 402.4 532 C 401.8 532.6,399.3 533.6,396.9 534.1 C 392.1 535.2,390 536.6,390 538.6 C 390 540.4,400.5 545.2,409.2 547.4 C 418 549.5,436.2 549.6,442.6 547.4 C 445.2 546.5,448.6 546.1,450.1 546.4 C 453 547,453.9 546.3,455.8 541.8 C 456.9 539.1,456.8 538.9,453 537 C 446.4 533.6,437 532,419.8 531.4 C 408 531,403.2 531.1,402.4 532 M 410.5 578 C 409.4 578.5,407.2 578.9,405.7 578.9 C 402.6 579,401.2 581.3,402.9 583.4 C 404.4 585.1,413.7 587.6,423.8 588.9 C 435.9 590.4,459.4 587.4,462.6 583.8 C 464.6 581.7,464.5 581.7,455 580.1 C 440.2 577.5,414.4 576.3,410.5 578"/><path fill="#c5bebe" fill-rule="evenodd" d="M 309.5 63.4 C 308.9 63.6,306.5 64.3,304 65.1 C 294.4 67.9,282 79.6,282 85.9 C 282 87,281.6 88.2,281 88.5 C 279.6 89.3,279.7 107.2,281.1 110.7 C 283.5 116.7,284.6 118.7,289.2 125.7 C 291.9 129.6,294 133.2,294 133.6 C 294 134,286.6 141.6,277.5 150.5 C 268.4 159.4,261 167.3,261 167.9 C 261 168.6,259.4 171,257.5 173.3 C 255.6 175.5,254 177.8,254 178.4 C 254 178.9,253.3 180.1,252.4 181.1 C 251.5 182.1,251.3 183,251.9 183.4 C 252.8 184,285.1 152,293.9 141.7 C 299.2 135.5,299.2 133,293.9 127.3 C 291.7 124.9,288.5 120,286.8 116.5 C 281.8 105.6,283 92,290.2 81.4 C 297.7 70.2,319 64.6,334.3 69.8 C 337.5 70.8,340.3 71.3,340.6 70.9 C 341.2 69.9,336.7 66.9,332 65.3 C 328.6 64.1,311.5 62.6,309.5 63.4 M 307 72.7 C 304.4 73.7,301.9 76.3,297.9 82.2 C 294.8 86.7,294 88.8,294 92.3 C 294 97.7,295.6 99.3,301.3 99.4 C 307.5 99.5,311.5 96.3,313.6 89.5 C 315.3 84.1,315.3 84,313.1 81 C 311.8 79.2,311 76.9,311.2 75.3 C 311.5 72.5,310 71.6,307 72.7 M 306 142.6 C 304.4 146.6,304.8 148.5,307.6 151.1 C 310.4 153.7,316.5 165.9,319.5 175 C 320.5 178,321.7 181,322.1 181.6 C 323.4 183.2,326.9 194.1,327 196.5 C 327 197.6,327.6 199.4,328.4 200.5 C 329.1 201.6,329.8 202.8,329.9 203.2 C 329.9 203.7,330 204.3,330.1 204.8 C 330.2 205.2,330.1 206.7,330 208.2 C 329.9 209.6,330.3 211.1,330.9 211.5 C 331.5 211.8,332 213.8,332 215.9 C 332 220.2,334.5 223.5,335.6 220.6 C 336.4 218.5,335.3 212.5,333.2 208 C 332.4 206.1,331.6 204.2,331.5 203.8 C 331.3 203.3,331.1 202.7,331 202.2 C 330.9 201.8,330.9 200.6,331 199.6 C 331.1 198.5,330.7 195.8,330 193.6 C 329.4 191.3,328.2 187.2,327.5 184.5 C 326.7 181.8,325.4 177.5,324.6 175 C 323.9 172.5,322.9 169,322.5 167.2 C 322.1 165.4,320.3 160.6,318.5 156.7 C 316.7 152.7,314.9 147.9,314.5 146 C 313.6 141.5,312.3 140,309.4 140 C 307.7 140,306.6 140.8,306 142.6 M 282.7 180.2 C 280.8 182.6,275.8 191.5,271.6 200 C 267.4 208.5,263.3 216.6,262.6 218 C 256.1 229.5,243.2 259.9,241.6 267.6 C 241.3 269.2,241.5 273,242 276 C 242.6 279,243.2 286.5,243.4 292.6 C 243.6 298.7,244 304.2,244.4 304.8 C 244.8 305.5,245.5 308.6,246 311.7 C 246.6 314.9,247.6 318,248.3 318.5 C 249.1 319.1,250.7 321.4,251.9 323.8 C 253.1 326.1,254.4 328,254.9 328 C 255.7 328,260.9 325.6,268 322 C 268.8 321.6,270.4 318.6,271.5 315.4 C 272.7 312,274.1 309.5,274.9 309.5 C 277.6 309.5,280.3 304.3,281 297.3 C 281.4 293.6,282.2 289.1,282.8 287.5 C 284.6 282.2,286.3 274.6,286.2 272 C 286 268.3,289.9 257.3,291.6 256.6 C 292.6 256.2,293 254.3,293 249.1 C 293 245.3,293.5 240.9,294.1 239.3 C 294.7 237.8,295.3 235.4,295.5 234 C 296.1 229.8,298.2 221.7,299.6 218.3 C 302.1 212.7,301.4 205.9,297.5 198 C 295.6 194,293.6 188.3,293 185.3 C 291.9 180.2,289.2 176,287.1 176 C 286.6 176,284.6 177.9,282.7 180.2 M 233.2 211.2 C 232.5 211.9,232 213,232 213.7 C 232 214.4,231.2 216.4,230.2 218.2 C 229.2 220,227.1 223.7,225.7 226.3 C 224.2 228.9,223 231.7,223 232.4 C 223 233.2,222.4 234,221.7 234.3 C 220.3 234.8,211.9 251.4,206.9 263.5 C 205.8 266.3,202.9 274.9,201.9 278.8 C 201.4 280.5,200.5 283.7,199.9 285.8 C 196.5 297.4,195 322.9,197 334.5 C 198.4 342.1,200.6 349.8,202 351.5 C 202.4 352,202.9 352.8,202.9 353.2 C 203 353.7,203.2 354,203.5 354 C 203.9 354,204.1 353.4,203.9 352.8 C 203.9 352.6,203.7 351.8,203.5 351 C 194.4 308.4,201.1 277.6,231.5 223.5 C 235.8 215.8,237 211.7,235.2 210.6 C 234.7 210.3,233.8 210.6,233.2 211.2 M 335.5 226.2 C 335.1 227.1,335.4 230.1,336 232.7 C 342 257.1,343.2 282,339.1 297.3 C 335.2 312,327.2 324.6,318.4 330.1 C 313.6 333,315.3 334.9,321 333 C 330.3 329.9,340 316.7,344.7 300.7 C 347.5 290.9,348.1 270.7,345.7 261.8 C 344.9 258.9,343.7 253.3,343.1 249.5 C 339.8 230.2,337.1 221.9,335.5 226.2 M 397.6 269.8 C 396.6 271.5,396.7 282.7,397.8 291.8 C 398.4 297.3,398.5 302,398 303.3 C 397.6 304.5,396.7 309.9,396.1 315.4 C 395 325.3,395.4 328,398.3 328 C 400.3 328,405 322.6,405 320.4 C 405 319.1,405.5 317.8,406 317.5 C 407.6 316.5,410.7 309.2,412 303.2 C 414.4 292.5,410.6 275.1,405 271.2 C 401.6 269,398.5 268.4,397.6 269.8 M 272.5 402.6 C 264.3 404.6,256.2 410.4,257.3 413.3 C 258.1 415.3,270.3 417.4,277.6 416.7 C 286.5 416,302.3 412.9,303.8 411.7 C 305.8 410.1,304.4 409.4,292.8 406.1 C 281.3 402.8,275.7 401.9,272.5 402.6 M 368.1 408.3 C 364.6 410,364.4 411.8,367.5 413 C 371.9 414.7,378.5 414.2,380.4 412.1 C 382 410.3,382 410.1,379.8 408.6 C 377.1 406.7,371.5 406.5,368.1 408.3 M 270.2 435.7 C 266.3 436.2,265.1 438.4,267.4 440.9 C 269.5 443.3,269.4 445.3,267 447.5 C 265.9 448.5,265 449.8,265 450.3 C 265 450.8,263.8 452.4,262.4 453.7 C 259.9 456,259.9 456.2,261.5 457.9 C 263.3 460,270.1 462,275.3 462 C 279.3 462,287.4 459.4,288.9 457.6 C 290 456.3,287.8 450.9,284.9 447.4 C 283.9 446.1,283.9 445.4,284.9 443.8 C 286 442,285.8 441.4,283.3 438.8 C 280.3 435.8,276.3 434.9,270.2 435.7 M 238.7 443.7 C 238.5 444.1,237.5 446.9,236.5 449.8 C 234.7 455.3,230.9 459.1,223.2 462.7 C 216.5 465.9,208.6 478,210.4 482.5 C 211.3 484.9,213 483.3,213 480 C 213 475.1,218.6 469,227.2 464.5 C 231.4 462.3,235.7 459.7,236.8 458.7 C 239.1 456.6,241.7 445.3,240.2 443.8 C 239.7 443.3,239 443.2,238.7 443.7 M 372.5 452.9 C 371.8 454.2,375.7 456.3,377.1 455.5 C 377.8 455,377.7 454.4,376.9 453.4 C 375.6 451.8,373.4 451.6,372.5 452.9 M 257.4 467.5 C 246.9 469.1,241 471.2,241 473.4 C 241 475.4,241.6 475.7,250.1 477.4 C 265.2 480.4,271.8 480.4,286.7 477.6 C 304.6 474.2,309.3 473.1,310.4 472 C 314.3 468.1,275.1 464.8,257.4 467.5 M 376.1 474.4 C 374.2 476.7,377.4 478.2,384.5 478.3 C 391.2 478.4,395.1 476.6,393.6 474.1 C 392.5 472.4,377.5 472.7,376.1 474.4 M 209 488.5 C 208.4 489.9,208 492.4,208 493.9 C 208 497.6,203.2 502.3,197.7 504.2 C 189.2 507.2,186.3 508,184.2 508 C 183.1 508,181.1 508.4,179.8 508.9 C 178.5 509.4,175.5 510.3,173 511 C 168.5 512.2,166.9 512.7,159.5 514.9 C 155.4 516.2,151.8 517.6,148.8 519.1 C 147.8 519.6,146.5 520,146 520 C 144.1 520,133.4 527.7,131.7 530.3 C 125.5 539.8,124.1 559.1,129 569 C 131.3 573.7,131.2 577.1,128.5 582.1 C 124.6 589.7,126 591.4,131.5 586 C 136.6 581,136.9 579.6,133.9 573.8 C 131 568.1,129 561.2,129 556.5 C 129 550.7,132.3 539.7,135.4 534.9 C 138.6 530.1,148 523.8,154.7 522 C 157.3 521.4,164.9 519,171.4 516.9 C 177.9 514.8,183.9 513,184.6 513 C 188 513,205.2 506.7,207.9 504.5 C 209.5 503.1,211.9 502,213.3 502 C 214.7 502,217.2 500.9,218.7 499.6 L 221.5 497.2 218.5 496 C 216.8 495.4,215 494.8,214.3 494.5 C 213.6 494.3,212.8 492.5,212.4 490.5 C 211.6 486,210.3 485.2,209 488.5 M 248.5 488.7 C 239.2 489.2,227.1 491.2,225.4 492.4 C 224.3 493.3,223.9 494.3,224.4 495.5 C 225 497.1,225.9 497.2,231.9 496.6 C 237.5 496.1,238.9 496.3,239.4 497.5 C 240.8 501.2,256.2 504.2,266.8 503 C 283.3 501,288.7 497,280.9 492.5 C 273 487.9,269.2 487.4,248.5 488.7 M 378.6 490.8 C 377.6 492.5,379.2 498,381.1 499 C 383.7 500.4,387.2 500.2,389.7 498.5 C 391.9 497,391.9 496.9,390.1 493.7 C 388.6 490.9,387.7 490.5,383.8 490.2 C 381.2 490,378.9 490.3,378.6 490.8 M 242 523.4 C 241.1 524.3,233.2 526.1,222.5 527.9 C 212.6 529.6,202 531.9,199 533.1 C 196 534.2,192.5 535.6,191.4 536 C 190.2 536.5,189 538,188.8 539.5 C 188.1 543,191.1 545,197.3 545 C 200 545,203.1 545.7,204.5 546.6 C 206.4 547.8,210.3 548.4,220.3 548.7 C 227.5 548.9,234 549.3,234.7 549.5 C 238.8 550.9,259.6 547.4,274.6 542.9 C 276.3 542.4,278.4 542,279.3 542 C 284.1 542,291.5 539.5,293.6 537.3 C 295.6 535.1,296.5 534.8,299.9 535.4 C 304.5 536.1,305.8 535,303.1 532.5 C 300.9 530.6,296.2 529.2,287.5 528 C 272.2 525.8,267.7 524.9,265.8 523.6 C 264.4 522.6,263 522.4,260.4 523.2 C 258.2 523.8,255 523.7,251.3 523 C 244 521.7,243.7 521.7,242 523.4 M 407.3 535 C 396 537.3,396.6 540.5,408.9 544.5 C 412.8 545.8,418 546.3,427.6 546.4 L 440.8 546.5 444.4 542.9 C 448.6 538.7,448.3 538.2,440.6 535.6 C 435.2 533.9,415.2 533.5,407.3 535 M 227 571.7 C 218.3 572.2,196.8 576,193.8 577.6 C 190.6 579.2,189.4 580.9,190.6 582 C 193.5 584.7,241.7 585.2,258.5 582.7 C 268.5 581.2,272.8 580.6,280 579.7 C 281.4 579.5,283.6 578.8,284.9 578.1 C 289.4 575.6,285.5 574.2,272.5 573.4 C 239.5 571.6,232.7 571.3,227 571.7 M 412.5 579 C 405.4 581.7,408.5 585.3,419 586.5 C 432 588.1,450.8 587.2,453.5 585 C 455.7 583.2,453.6 581,449.6 581 C 447.9 581,444.9 580.6,443 580.1 C 438.2 578.9,415 578,412.5 579"/></svg>